<svg id="page1_phone" xmlns="http://www.w3.org/2000/svg" xmlns:xlink="http://www.w3.org/1999/xlink" viewBox="0 0 972.98 1996.56"><defs><style>.cls-1{stroke:#ccc;stroke-miterlimit:10;stroke-width:6.56px;fill:url(#linear-gradient);}</style><linearGradient id="linear-gradient" x1="17.29" y1="1007" x2="983.71" y2="1007" gradientUnits="userSpaceOnUse"><stop offset="0" stop-color="#a4acaf"/><stop offset="0.38" stop-color="#b3bbbe"/><stop offset="1" stop-color="#a6aeb1"/></linearGradient></defs><title>grey_iphone</title><path class="cls-1" d="M840.7,12H160.3a143,143,0,0,0-143,143V1859a143,143,0,0,0,143,143H840.7a143,143,0,0,0,143-143V155A143,143,0,0,0,840.7,12ZM420.41,110.74a22.65,22.65,0,0,1,22.65-22.65H557.93a22.65,22.65,0,0,1,22.65,22.65v0.46a22.65,22.65,0,0,1-22.65,22.65H443.07a22.65,22.65,0,0,1-22.65-22.65v-0.46ZM934.63,1768.45H66.37V227.29H934.63V1768.45Z" transform="translate(-14.01 -8.72)"/></svg>