<?xml version="1.0" encoding="utf-8"?>
<!-- Generator: Adobe Illustrator 19.2.1, SVG Export Plug-In . SVG Version: 6.00 Build 0)  -->
<svg version="1.1" id="Layer_1" xmlns="http://www.w3.org/2000/svg" xmlns:xlink="http://www.w3.org/1999/xlink" x="0px" y="0px"
	 viewBox="0 0 525 100" style="enable-background:new 0 0 525 100;" xml:space="preserve">
<style type="text/css">
	.st0{fill:#FFFFFF;}
</style>
<g>
	<g>
		<g>
			<g>
				<path id="SVGID_24_" class="st0" d="M111.2,17.2C100.7,21.5,93.7,27.6,88,34.4C78.6,45.7,71.8,62,71.7,72.7
					c-0.2,15.1,9.1,22.9,9.1,22.9s-9.5-0.8-16.2-8.9C60,81.2,58.8,69.8,60,61.9c2.7-18.9,14.6-36,26.8-45.6c0.2-0.2,0.4-0.3,0.7-0.5
					c1.7-1.8,2.4-3.2-1-3c-2.2,0.1-4.5,1.4-6.6,3C78,17.5,76,19.4,74,21.5c-0.4,0.4-0.5,0.7-0.5,0.7s0-0.1,0.1-0.1
					c-0.6,0.7-1.2,1.3-1.8,2c-18.3,21.2-17.2,39.4-17,44.8c0.4,10.1,3.1,15.9,3.1,15.9s-3.5-1.6-6.6-6.1s-10-13.4-3-35.1
					c0.1-0.3,0.2-0.7,0.3-1c0.2-1,1.7-4.7,2.8-7.9c0.9-2.7,0.9-4-0.4-3.9c-1,0-2,1.7-3.4,4.3c-1.8,3.5-3.5,7.8-4.4,11.5
					c-1.2,4.9-1.4,9-1.5,11c-0.2,4.4,0.8,7.2,0.8,7.2s-2.1-3.4-2.8-8.5C39.1,53,39.6,46,42.7,38c7.6-19.6,35.6-47,78.4-27.1
					c9.4,4.4,14.3,10.4,14.3,10.4S124.4,11.8,111.2,17.2L111.2,17.2z"/>
			</g>
		</g>
	</g>
	<g>
		<g>
			<g>
				<path id="SVGID_26_" class="st0" d="M118.6,87.3c-8.5,6.1-18.6,10.6-29.4,9.7c-1.2-0.1-2.5-0.2-3.8-0.4
					c6.1-1.4,13.2-3.8,20.5-8.9c6.7-4.6,14.5-11.7,21.5-22.1c2.9-4.3,5.7-9.2,7.6-12.8l5.9,4.1C140.9,57,133.4,76.7,118.6,87.3
					L118.6,87.3z M88.5,89.3c-2.6,1.2-5.7,2.1-8.8,2.8c-0.4-0.5-0.9-1.2-1.4-1.9c-1.2-1.9-2.5-4.5-3.5-7.2c5.4-1.5,10.2-3.2,15.3-6
					c17.9-9.8,26.1-28,27.8-31.7c0.6-1.2,1.1-2.3,1.5-3.3l9.5,6.6c-0.4,1.1-0.9,2.3-1.5,3.6C117,75.7,95.4,86.3,88.5,89.3L88.5,89.3
					z M73.6,77.6c-0.5-4.7-0.1-8.8,0.2-10.9c4.8-1.7,9.5-4.5,13.6-8c7-6,13.8-16.7,16.3-22.9c0.9-2.2,1.2-3.7,1.2-3.7l9.3,6.4
					c-0.4,1-0.9,2.3-1.4,3.7C102.4,67.1,80.5,76.2,73.6,77.6L73.6,77.6z M62.6,87.9c-1.5-1-2.9-2.1-4.2-3.3c1.1,0,2.4,0.1,3.7,0
					c1.2,2.1,2.9,4.1,5.1,6C65.6,89.8,64.1,88.9,62.6,87.9L62.6,87.9z M56.1,72.8c-0.1-2-0.2-4-0.3-5.4c0.9,0.2,1.8,0.4,2.8,0.6
					c0,1.9,0.1,5,0.3,7.2c0.1,0.9,0.2,2,0.5,3.2c-0.9,0-1.8-0.1-2.7-0.1C56.6,76.9,56.3,74.8,56.1,72.8L56.1,72.8z"/>
			</g>
		</g>
	</g>
	<g>
		<g>
			<polygon class="st0" points="160.3,32.4 162.3,32.4 167.9,32.4 180.3,61.3 192.7,32.4 194.7,32.4 200.4,32.4 200.4,69.1 
				198.4,69.1 194.7,69.1 194.7,41.2 182.9,69.1 180.9,69.1 177.8,69.1 165.9,41.2 165.9,69.1 163.9,69.1 160.3,69.1 			"/>
			<polygon class="st0" points="160.3,32.4 160.3,33.3 162.3,33.3 167.3,33.3 180.3,63.6 193.3,33.3 194.7,33.3 199.5,33.3 
				199.5,68.2 198.4,68.2 195.6,68.2 195.6,41.2 193.9,40.8 182.3,68.2 180.9,68.2 178.4,68.2 166.8,40.8 165,41.2 165,68.2 
				163.9,68.2 161.2,68.2 161.2,32.4 160.3,32.4 160.3,33.3 160.3,32.4 159.3,32.4 159.3,70 163.9,70 166.8,70 166.8,45.7 177.2,70 
				180.9,70 183.5,70 193.8,45.7 193.8,70 198.4,70 201.3,70 201.3,31.5 194.7,31.5 192.1,31.5 180.3,59 168.5,31.5 162.3,31.5 
				159.3,31.5 159.3,32.4 			"/>
		</g>
		<path class="st0" d="M225.2,41.8c0.9,0.2,1.7,0.5,2.5,0.8s1.6,0.8,2.4,1.3c0.8,0.5,1.5,1.1,2.2,1.8s1.3,1.4,1.8,2.2s1,1.6,1.3,2.4
			c0.4,0.8,0.6,1.7,0.8,2.5c0.2,0.9,0.3,1.8,0.3,2.7c0,1-0.1,1.9-0.2,2.8c-0.2,0.9-0.4,1.8-0.8,2.6c-0.3,0.8-0.8,1.6-1.3,2.4
			c-0.5,0.8-1.1,1.5-1.8,2.2s-1.4,1.3-2.2,1.9c-0.7,0.5-1.5,0.9-2.4,1.3c-0.8,0.3-1.7,0.6-2.6,0.7c-0.9,0.2-1.8,0.2-2.8,0.2h-2
			c-1,0-1.9-0.1-2.8-0.3c-0.9-0.2-1.8-0.4-2.6-0.7c-0.8-0.3-1.6-0.7-2.4-1.2c-0.8-0.5-1.5-1.1-2.2-1.8c-0.7-0.7-1.3-1.4-1.9-2.1
			c-0.5-0.8-0.9-1.6-1.3-2.4c-0.3-0.8-0.6-1.7-0.8-2.6c-0.2-0.9-0.3-1.8-0.3-2.8s0.1-1.9,0.2-2.8c0.2-0.9,0.4-1.8,0.7-2.6
			c0.4-0.9,0.8-1.7,1.3-2.4c0.5-0.8,1.1-1.5,1.8-2.2s1.4-1.3,2.2-1.8s1.6-1,2.4-1.3c0.9-0.4,1.7-0.6,2.7-0.8
			c0.9-0.2,1.9-0.3,2.8-0.3v-0.1h2C223.4,41.5,224.3,41.6,225.2,41.8z M219.7,45.4c-0.5,0.1-0.9,0.3-1.4,0.5c-0.6,0.3-1.2,0.6-1.8,1
			s-1.1,0.9-1.6,1.4s-1,1.1-1.3,1.7c-0.4,0.6-0.7,1.2-0.9,1.9c-0.2,0.6-0.4,1.3-0.5,2S212,55.3,212,56c0,0.7,0.1,1.4,0.2,2.1
			c0.1,0.7,0.3,1.3,0.5,2c0.3,0.6,0.6,1.2,1,1.8s0.8,1.1,1.4,1.6c0.5,0.5,1.1,1,1.6,1.4c0.6,0.4,1.2,0.7,1.8,1
			c0.5,0.2,1,0.3,1.5,0.4s1.1,0.2,1.6,0.2c0.6-0.1,1.1-0.1,1.6-0.2s1-0.3,1.5-0.5c0.6-0.3,1.2-0.6,1.8-1s1.1-0.9,1.6-1.4
			s0.9-1.1,1.3-1.7c0.4-0.6,0.7-1.2,0.9-1.8c0.3-0.7,0.5-1.3,0.6-2s0.2-1.4,0.2-2.1c0-0.4,0-0.7,0-1.1c0-0.4-0.1-0.7-0.1-1
			c-0.1-0.3-0.1-0.7-0.2-1c-0.1-0.3-0.2-0.6-0.3-1c-0.1-0.3-0.3-0.6-0.4-0.9c-0.1-0.3-0.3-0.6-0.5-0.9c-0.2-0.3-0.4-0.5-0.7-0.8
			c-0.2-0.3-0.5-0.6-0.8-0.8c-0.2-0.2-0.5-0.4-0.8-0.6c-0.3-0.2-0.6-0.4-0.8-0.6c-0.3-0.2-0.5-0.3-0.8-0.5s-0.6-0.3-0.9-0.4
			c-0.3-0.1-0.7-0.2-1-0.3s-0.6-0.2-1-0.2c-0.1,0-0.1,0-0.2,0c-0.1,0-0.2,0-0.2,0h-0.1h-0.1c-0.1,0-0.2,0-0.3,0s-0.2,0-0.3,0
			C220.6,45.2,220.1,45.3,219.7,45.4z"/>
		<path class="st0" d="M225.2,41.8l-0.2,0.9c0.8,0.2,1.6,0.4,2.3,0.8l0,0l0,0c0.8,0.3,1.5,0.7,2.2,1.2s1.4,1.1,2.1,1.7l0.6-0.7
			l-0.6,0.6c0.7,0.7,1.2,1.3,1.7,2.1c0.5,0.7,0.9,1.4,1.2,2.2l0,0l0,0c0.3,0.8,0.6,1.6,0.8,2.3c0.2,0.8,0.3,1.6,0.3,2.5
			s-0.1,1.8-0.2,2.6c-0.2,0.8-0.4,1.6-0.7,2.4l0,0l0,0c-0.3,0.8-0.7,1.5-1.2,2.3c-0.5,0.7-1.1,1.4-1.7,2.1c-0.7,0.7-1.3,1.3-2,1.7
			c-0.7,0.5-1.4,0.9-2.2,1.2l0.4,0.8l-0.3-0.8c-0.8,0.3-1.6,0.5-2.4,0.7c-0.9,0.2-1.7,0.2-2.6,0.2l0,0h-2v0.9v-0.9
			c-0.9,0-1.8-0.1-2.6-0.3c-0.8-0.2-1.7-0.4-2.5-0.7l-0.3,0.9l0.3-0.8c-0.8-0.3-1.5-0.7-2.3-1.2c-0.7-0.5-1.4-1-2.1-1.7l0,0l0,0
			c-0.7-0.6-1.2-1.3-1.7-2s-0.9-1.5-1.2-2.2l-0.8,0.4l0.8-0.3c-0.3-0.8-0.6-1.6-0.7-2.4c-0.2-0.8-0.3-1.7-0.3-2.6
			c0-0.9,0.1-1.8,0.2-2.7c0.2-0.9,0.4-1.7,0.7-2.4l-0.8-0.3l0.8,0.4c0.3-0.8,0.7-1.6,1.2-2.3s1.1-1.4,1.7-2.1l-0.7-0.6l0.6,0.6
			c0.7-0.7,1.3-1.2,2.1-1.7c0.7-0.5,1.5-0.9,2.2-1.2l0,0l0,0c0.8-0.3,1.6-0.6,2.5-0.8c0.8-0.2,1.7-0.3,2.7-0.3h0.9v-0.1h1.1v-0.9
			v0.9c0.9,0,1.8,0.1,2.6,0.3L225.2,41.8l0.2-0.9c-0.9-0.2-1.9-0.3-2.9-0.3l0,0h-2.9v1h0.9v-0.9c-1,0-2.1,0.1-3,0.3
			c-1,0.2-1.9,0.5-2.8,0.9l0.4,0.8l-0.3-0.8c-0.9,0.4-1.7,0.8-2.6,1.4c-0.8,0.6-1.6,1.2-2.3,1.9l0,0l0,0c-0.7,0.8-1.4,1.5-1.9,2.3
			s-1,1.7-1.4,2.6l0,0l0,0c-0.4,0.9-0.6,1.8-0.8,2.8s-0.3,2-0.3,3s0.1,2,0.3,3c0.2,0.9,0.5,1.9,0.8,2.7l0,0l0,0
			c0.4,0.9,0.8,1.7,1.4,2.5c0.6,0.8,1.2,1.6,2,2.3l0.6-0.7l-0.6,0.6c0.7,0.7,1.5,1.4,2.4,1.9c0.8,0.5,1.7,1,2.6,1.3l0,0l0,0
			c0.9,0.3,1.8,0.6,2.8,0.7c0.9,0.2,1.9,0.3,2.9,0.3l0,0l2-0.1v-0.9v0.9c1,0,2-0.1,3-0.3c1-0.2,1.9-0.4,2.8-0.8l0,0l0,0
			c0.9-0.4,1.8-0.9,2.6-1.4c0.8-0.6,1.6-1.2,2.3-2c0.7-0.7,1.3-1.5,1.9-2.4c0.6-0.8,1-1.7,1.4-2.6l-0.8-0.3l0.8,0.4
			c0.4-0.9,0.7-1.9,0.8-2.8c0.2-0.9,0.3-1.9,0.3-2.9s-0.1-2-0.3-2.9s-0.5-1.8-0.9-2.7l-0.8,0.4l0.8-0.3c-0.4-0.9-0.8-1.7-1.4-2.6
			c-0.6-0.8-1.2-1.6-1.9-2.3l0,0l0,0c-0.8-0.7-1.5-1.4-2.3-1.9c-0.8-0.6-1.7-1-2.6-1.4l-0.3,0.8l0.4-0.8c-0.9-0.4-1.8-0.7-2.7-0.9
			L225.2,41.8z M219.7,45.4l-0.3-0.9c-0.5,0.1-1,0.3-1.5,0.5l0,0c-0.7,0.3-1.3,0.7-2,1.1c-0.6,0.4-1.2,0.9-1.7,1.5l0.7,0.6l-0.6-0.6
			c-0.6,0.6-1.1,1.2-1.5,1.8s-0.7,1.3-1,2l0,0l0,0c-0.2,0.7-0.4,1.4-0.6,2.1c-0.1,0.7-0.2,1.5-0.2,2.3s0.1,1.5,0.2,2.3
			c0.1,0.7,0.3,1.4,0.6,2.1l0,0l0,0c0.3,0.7,0.6,1.3,1.1,1.9c0.4,0.6,0.9,1.2,1.5,1.7l0.6-0.7l-0.6,0.6c0.6,0.6,1.2,1.1,1.8,1.5
			s1.3,0.8,1.9,1.1l0,0l0,0c0.5,0.2,1.1,0.4,1.7,0.5c0.5,0.1,1.1,0.2,1.6,0.3h0.1h0.1c0.6-0.1,1.1-0.2,1.7-0.3
			c0.6-0.1,1.2-0.3,1.7-0.6l-0.4-0.8l0.4,0.8c0.7-0.3,1.4-0.7,2-1.1s1.2-1,1.7-1.5l0,0l0,0c0.5-0.6,0.9-1.1,1.3-1.8
			c0.4-0.6,0.8-1.3,1-2l-0.9-0.3L231,60c0.3-0.7,0.5-1.5,0.6-2.2s0.2-1.5,0.2-2.3c0-0.4,0-0.8-0.1-1.2c0-0.4-0.1-0.8-0.2-1.1
			c-0.1-0.4-0.2-0.7-0.3-1.1c-0.1-0.3-0.2-0.7-0.4-1l0,0l0,0c-0.1-0.3-0.3-0.6-0.4-0.9c-0.2-0.3-0.4-0.7-0.6-1l0,0l0,0
			c-0.2-0.3-0.5-0.6-0.7-0.9c-0.3-0.3-0.5-0.6-0.8-0.9c-0.3-0.3-0.6-0.5-0.9-0.7c-0.3-0.2-0.5-0.4-0.8-0.6l0,0l0,0
			c-0.3-0.2-0.6-0.3-0.9-0.5c-0.3-0.2-0.6-0.3-1-0.5l0,0l0,0c-0.3-0.1-0.7-0.3-1-0.4c-0.3-0.1-0.7-0.2-1.1-0.3h-0.1h-0.1l0,0l0,0
			l0,0l0,0c-0.1,0-0.2,0-0.4,0v0.9l0.2-0.9h-0.1l0,0H222h-0.1h-0.1h-0.2l0,0l0,0c-0.2,0-0.3,0-0.5,0H221h-0.1
			c-0.6,0.1-1.1,0.2-1.6,0.3L219.7,45.4l0.3,0.9c0.4-0.1,0.9-0.2,1.4-0.3l-0.1-0.9V46h0.2l0,0l0,0c0.2,0,0.3,0,0.5,0v-0.9l-0.2,0.9
			h0.1h0.1h0.1h0.1l0,0l0,0l0.2-0.9l-0.2,0.9c0.1,0,0.3,0,0.4,0v-0.9l-0.2,0.9c0.3,0.1,0.6,0.1,0.9,0.2c0.3,0.1,0.6,0.2,0.9,0.3
			l0.3-0.8l-0.4,0.8c0.3,0.1,0.5,0.3,0.8,0.4c0.3,0.2,0.6,0.3,0.8,0.5l0.5-0.8l-0.5,0.7c0.3,0.2,0.6,0.4,0.8,0.6
			c0.2,0.2,0.5,0.4,0.6,0.5c0.2,0.2,0.5,0.5,0.7,0.8s0.4,0.5,0.6,0.8l0.7-0.5l-0.8,0.5c0.2,0.3,0.3,0.5,0.5,0.8
			c0.1,0.3,0.3,0.6,0.4,0.9l0.8-0.4l-0.8,0.3c0.1,0.3,0.2,0.6,0.3,0.9c0.1,0.3,0.2,0.6,0.2,0.9c0.1,0.3,0.1,0.6,0.1,0.9
			c0,0.3,0,0.7,0,1c0,0.7-0.1,1.3-0.2,2c-0.1,0.6-0.3,1.2-0.5,1.8l0,0l0,0c-0.2,0.6-0.5,1.1-0.8,1.6c-0.4,0.5-0.8,1.1-1.2,1.6
			l0.7,0.6l-0.7-0.6c-0.5,0.5-0.9,0.9-1.5,1.3c-0.5,0.4-1,0.7-1.6,0.9l0,0l0,0c-0.4,0.2-0.8,0.3-1.2,0.4c-0.5,0.1-1,0.2-1.6,0.2
			l0.1,0.9l0.1-0.9c-0.5-0.1-1-0.1-1.5-0.2s-0.9-0.2-1.3-0.4l0,0l0,0c-0.6-0.2-1.1-0.5-1.6-0.9c-0.5-0.3-1-0.8-1.5-1.3l0,0l0,0
			c-0.5-0.5-0.9-0.9-1.2-1.4s-0.6-1.1-0.9-1.6l-0.8,0.4l0.9-0.3c-0.2-0.6-0.4-1.2-0.5-1.8s-0.2-1.3-0.2-1.9c0-0.7,0.1-1.3,0.2-1.9
			c0.1-0.6,0.3-1.2,0.5-1.8l-0.9-0.3l0.8,0.3c0.2-0.6,0.5-1.2,0.9-1.7c0.3-0.5,0.7-1,1.2-1.5l0,0l0,0c0.5-0.5,0.9-0.9,1.4-1.3
			c0.5-0.4,1-0.7,1.6-0.9l0,0c0.4-0.2,0.9-0.3,1.3-0.5L219.7,45.4z"/>
		<path class="st0" d="M241.7,32.5h2h3.7v12c0.3-0.2,0.5-0.4,0.8-0.6c0.2-0.2,0.5-0.4,0.8-0.5c0.4-0.2,0.8-0.4,1.2-0.6
			c0.4-0.2,0.8-0.3,1.2-0.5s0.8-0.3,1.3-0.4c0.4-0.1,0.9-0.2,1.3-0.2h0.2h0.2h0.2h0.2h0.2h0.2h2h0.2h0.2c1,0,1.9,0.1,2.8,0.2
			c0.9,0.2,1.8,0.4,2.7,0.7c0.9,0.3,1.7,0.8,2.5,1.3s1.6,1.1,2.3,1.8c0.7,0.7,1.4,1.4,1.9,2.1c0.5,0.7,1,1.5,1.4,2.4
			c0.4,0.8,0.6,1.7,0.8,2.6c0.2,0.9,0.3,1.9,0.3,2.9c0,0.4,0,0.9-0.1,1.3c0,0.4-0.1,0.8-0.2,1.2s-0.1,0.8-0.2,1.2s-0.2,0.8-0.3,1.1
			c-0.1,0.2-0.1,0.4-0.2,0.5c-0.1,0.2-0.1,0.3-0.2,0.5s-0.2,0.3-0.2,0.5c-0.1,0.1-0.1,0.3-0.2,0.5c-0.1,0.3-0.3,0.6-0.5,0.8
			s-0.4,0.5-0.5,0.7l-0.1,0.1v0.1l-0.1,0.1v0.1l-0.1,0.1l-0.1,0.1c-0.2,0.2-0.4,0.4-0.6,0.6s-0.4,0.4-0.5,0.6
			c-0.2,0.2-0.4,0.4-0.6,0.5s-0.4,0.3-0.5,0.5c-0.2,0.1-0.4,0.3-0.6,0.4s-0.4,0.3-0.5,0.4c-0.2,0.1-0.4,0.2-0.6,0.3
			c-0.2,0.1-0.4,0.2-0.5,0.3c-0.3,0.1-0.5,0.3-0.8,0.4s-0.6,0.2-0.8,0.3c-0.3,0.1-0.5,0.1-0.8,0.2s-0.6,0.1-0.8,0.1
			c-0.1,0-0.3,0.1-0.4,0.1s-0.3,0-0.4,0.1c-0.1,0-0.3,0-0.4,0s-0.3,0-0.4,0.1c-0.1,0-0.3,0-0.4,0s-0.3,0-0.4,0c-0.2,0-0.3,0-0.4,0
			s-0.3,0-0.4,0h-2h-0.2h-0.2h-0.3h-0.1h-0.1h-0.1h-0.1h-0.1h-0.1h-0.1H255h-0.1h-0.1h-0.1h-0.3h-0.1h-0.1h-0.1H254h-0.1h-0.1h-0.1
			c-0.4-0.1-0.8-0.1-1.2-0.2s-0.8-0.2-1.1-0.3c-0.4-0.1-0.7-0.3-1.1-0.4c-0.4-0.2-0.7-0.4-1.1-0.6c-0.3-0.2-0.5-0.3-0.7-0.5
			c-0.2-0.1-0.5-0.3-0.7-0.5v2.2h-2h-3.5V32.5H241.7z M256.3,45.2c-0.1,0-0.3,0-0.4,0l-0.2,0.1h-0.2c-0.3,0.1-0.7,0.1-1,0.2
			c-0.3,0.1-0.7,0.2-1,0.3s-0.7,0.3-1,0.5s-0.6,0.4-0.9,0.6c-0.3,0.2-0.6,0.4-0.8,0.6c-0.3,0.2-0.5,0.5-0.8,0.7
			c-0.3,0.3-0.5,0.5-0.7,0.8s-0.4,0.6-0.6,0.9c-0.2,0.3-0.4,0.6-0.5,0.9c-0.1,0.3-0.2,0.6-0.3,0.9c-0.1,0.3-0.2,0.7-0.3,1
			s-0.1,0.7-0.2,1c0,0.3-0.1,0.7-0.1,1c0,0.4,0,0.7,0,1.1c0,0.8,0.1,1.5,0.2,2.2c0.1,0.7,0.3,1.4,0.6,2s0.6,1.2,1,1.8
			c0.4,0.5,0.9,1.1,1.4,1.6s1.1,0.9,1.7,1.3c0.6,0.4,1.2,0.7,1.8,0.9c0.5,0.2,1,0.3,1.5,0.4s1.1,0.2,1.6,0.2
			c0.6-0.1,1.1-0.2,1.6-0.3c0.5-0.1,1-0.3,1.5-0.5c0.7-0.3,1.3-0.6,1.8-1c0.6-0.4,1.1-0.8,1.6-1.4c0.5-0.5,1-1.1,1.4-1.7
			c0.4-0.6,0.7-1.2,0.9-1.8c0.3-0.6,0.5-1.3,0.6-2s0.2-1.4,0.2-2.1c0-0.8-0.1-1.5-0.2-2.2s-0.3-1.4-0.6-2c-0.3-0.6-0.6-1.2-1-1.8
			s-0.9-1.1-1.4-1.6s-1.1-0.9-1.7-1.3c-0.6-0.4-1.2-0.7-1.9-0.9c-0.5-0.2-1-0.4-1.6-0.5c-0.5-0.1-1.1-0.2-1.7-0.2
			C256.6,45.1,256.4,45.1,256.3,45.2z"/>
		<path class="st0" d="M241.7,32.5v0.9h2h2.8v13.1l1.5-1.3c0.3-0.2,0.5-0.4,0.7-0.6c0.2-0.2,0.4-0.3,0.7-0.5l0,0l0,0
			c0.4-0.2,0.7-0.4,1.1-0.6c0.4-0.2,0.7-0.3,1.1-0.4l0,0l0,0c0.3-0.1,0.7-0.3,1.1-0.3c0.4-0.1,0.8-0.2,1.3-0.2l-0.1-0.9v0.9h0.2h0.1
			h0.2h0.1h0.2h0.2h0.1h0.2h1.9h0.2h0.2c0.9,0,1.8,0.1,2.7,0.2c0.9,0.2,1.7,0.4,2.5,0.7s1.6,0.7,2.3,1.2c0.7,0.5,1.5,1,2.2,1.7
			c0.7,0.6,1.3,1.3,1.8,2s0.9,1.4,1.3,2.2l0,0l0,0c0.3,0.8,0.6,1.6,0.8,2.4c0.2,0.9,0.3,1.8,0.3,2.7c0,0.4,0,0.8-0.1,1.2
			c0,0.4-0.1,0.8-0.2,1.2s-0.1,0.7-0.2,1.1c-0.1,0.4-0.2,0.7-0.3,1.1l0,0l0,0c-0.1,0.2-0.1,0.4-0.2,0.5l0,0l0,0
			c-0.1,0.2-0.1,0.3-0.2,0.5l0.8,0.3l-0.8-0.5c-0.1,0.2-0.2,0.4-0.3,0.6c-0.1,0.2-0.1,0.3-0.2,0.5l0.8,0.3l-0.8-0.4
			c-0.1,0.2-0.2,0.5-0.4,0.6c-0.2,0.2-0.4,0.5-0.5,0.7l0.7,0.5l-0.6-0.6l-0.1,0.1l-0.3,0.3v0.5h0.9l-0.6-0.6l-0.1,0.1l-0.1,0.1v0.1
			l0,0l-0.1,0.1l0,0l0,0c-0.2,0.2-0.4,0.4-0.5,0.6c-0.2,0.2-0.4,0.4-0.6,0.7l0.7,0.6l-0.6-0.6c-0.2,0.2-0.3,0.3-0.5,0.5
			s-0.4,0.3-0.6,0.5l0.6,0.6l-0.5-0.8c-0.2,0.1-0.4,0.3-0.6,0.5c-0.2,0.1-0.3,0.3-0.5,0.4l0.6,0.7l-0.5-0.8
			c-0.2,0.1-0.3,0.2-0.5,0.3c-0.2,0.1-0.4,0.2-0.6,0.3l0.5,0.8l-0.4-0.8c-0.3,0.1-0.5,0.3-0.8,0.4s-0.5,0.2-0.8,0.3L263,69l-0.2-0.9
			c-0.3,0.1-0.5,0.1-0.8,0.2s-0.5,0.1-0.7,0.1h-0.1h-0.1c-0.1,0-0.2,0-0.3,0.1l0,0c-0.2,0-0.3,0-0.5,0.1l0.2,0.9v-0.9
			c-0.2,0-0.3,0-0.5,0l0.1,0.9l-0.1-0.9c-0.2,0-0.3,0-0.5,0.1l0.2,0.9v-0.9c-0.2,0-0.3,0-0.5,0l0,0c-0.1,0-0.2,0-0.3,0h-0.1h-0.1
			c-0.1,0-0.2,0-0.3,0c-0.1,0-0.3,0-0.4,0l0,0h-1.9H256h-0.1h-0.3h-0.3v0.9l0.4-0.8h-0.1l-0.2-0.1h-0.3v0.9l0.4-0.8l-0.1-0.1
			l-0.2-0.1h-0.3h-0.1h-0.1h-0.1h-0.1h-0.1v0.9l0.4-0.8h-0.1l-0.2-0.1h-0.3h-0.3v0.9l0.4-0.8h-0.1l-0.2-0.1h-0.3v0.9l0.4-0.8H254
			l-0.2-0.1h-0.3h-0.1v0.9l0.4-0.8h-0.1l-0.2-0.1h-0.3v0.9l0.2-0.9c-0.4-0.1-0.8-0.1-1.2-0.2s-0.7-0.2-1-0.3c-0.3-0.1-0.7-0.3-1-0.4
			s-0.6-0.3-1-0.5l0,0c-0.3-0.2-0.5-0.3-0.7-0.5c-0.2-0.1-0.4-0.3-0.7-0.4l-1.4-1v3.1h-1.1h-2.6V32.5H241.7v0.9V32.5h-0.9V70h4.4
			h2.9v-3.1h-0.9l-0.5,0.7c0.2,0.2,0.5,0.3,0.7,0.5s0.5,0.3,0.8,0.5l0.5-0.8l-0.5,0.8c0.4,0.3,0.8,0.5,1.2,0.7s0.8,0.3,1.2,0.5
			c0.4,0.1,0.8,0.3,1.3,0.4c0.4,0.1,0.8,0.2,1.2,0.2h0.1h0.2v-0.9l-0.4,0.8h0.1l0.2,0.1h0.4h0.1v-0.9l-0.4,0.8h0.1l0.2,0.1h0.3v-0.9
			l-0.4,0.8h0.1l0.2,0.1h0.5h0.1v-0.9l-0.4,0.8h0.1l0.2,0.1h0.3h0.1h0.1h0.1h0.1h0.1v-0.9l-0.4,0.8h0.1l0.2,0.1h0.3v-0.9l-0.4,0.8
			h0.1l0.2,0.1h0.5h0.1h0.1h0.1l2.1-0.1v-0.9v0.9c0.2,0,0.3,0,0.4,0c0.2,0,0.4,0,0.6-0.1l-0.2-0.9v0.9c0.2,0,0.3,0,0.5,0l0,0l0,0
			c0.1,0,0.2,0,0.3,0h0.1h0.1c0.1,0,0.3-0.1,0.4-0.1l0,0l0,0c0.1,0,0.2,0,0.3,0h0.1h0.1c0.1,0,0.3,0,0.4-0.1l0,0
			c0.2,0,0.3-0.1,0.5-0.1l-0.2-0.9l0.1,0.9c0.3,0,0.6-0.1,0.9-0.2s0.6-0.1,0.8-0.2h0.1l0,0c0.3-0.1,0.6-0.2,0.9-0.4
			c0.3-0.1,0.6-0.3,0.8-0.4l0,0l0,0c0.2-0.1,0.3-0.2,0.5-0.3c0.2-0.1,0.4-0.2,0.6-0.4l0,0l0,0c0.2-0.1,0.3-0.3,0.5-0.4
			s0.3-0.3,0.5-0.4h0.1l0.1-0.1c0.1-0.1,0.3-0.3,0.5-0.4c0.2-0.2,0.4-0.4,0.6-0.6l0,0l0,0c0.1-0.2,0.3-0.4,0.5-0.5
			c0.2-0.2,0.4-0.4,0.6-0.7l-0.7-0.6l0.6,0.6l0.1-0.1l0.1-0.1l0.1-0.1l0.1-0.2l-0.8-0.4l0.6,0.6l0.1-0.1l0.3-0.3V64h-0.9l0.6,0.6
			l0.1-0.1l0.1-0.1v-0.1c0.2-0.2,0.3-0.5,0.5-0.7c0.2-0.3,0.4-0.6,0.6-1l0,0l0,0c0.1-0.2,0.1-0.3,0.2-0.4c0-0.1,0.1-0.2,0.2-0.4
			v-0.1v-0.1c0.1-0.2,0.1-0.3,0.2-0.5l0,0l0,0c0.1-0.2,0.1-0.4,0.2-0.6l-0.9-0.3l0.9,0.3c0.1-0.4,0.3-0.8,0.4-1.2s0.2-0.8,0.3-1.3
			c0.1-0.4,0.1-0.8,0.2-1.3c0.1-0.4,0.1-0.9,0.1-1.4c0-1.1-0.1-2.1-0.3-3.1c-0.2-1-0.5-1.9-0.9-2.8l-0.8,0.4l0.8-0.4
			c-0.4-0.9-0.9-1.8-1.5-2.6s-1.3-1.5-2-2.2c-0.8-0.7-1.6-1.3-2.4-1.9c-0.8-0.5-1.7-1-2.6-1.3c-0.9-0.4-1.9-0.6-2.8-0.8
			c-1-0.2-2-0.3-3-0.3h-0.2h-0.2H255h-0.2h-0.1h-0.2h-0.2h-0.1H254h-0.1h-0.1h-0.1c-0.4,0.1-0.9,0.2-1.4,0.3s-1,0.3-1.4,0.4l0.4,0.8
			l-0.3-0.9c-0.5,0.1-0.9,0.3-1.3,0.5c-0.4,0.2-0.8,0.4-1.3,0.7l0.5,0.8l-0.4-0.8c-0.3,0.2-0.7,0.4-0.9,0.6
			c-0.3,0.2-0.5,0.4-0.8,0.7l0.6,0.7h0.9v-13h-4.6h-2.9V32h0.9V32.5z M256.3,45.2l-0.2-0.9h-0.2h-0.1l-0.3,0.1h-0.2l0.2,0.9
			l-0.2-0.9c-0.4,0.1-0.7,0.2-1.1,0.3c-0.4,0.1-0.7,0.2-1.1,0.4c-0.4,0.1-0.7,0.3-1.1,0.5c-0.3,0.2-0.7,0.4-1,0.6
			c-0.3,0.2-0.6,0.5-0.9,0.7c-0.3,0.2-0.6,0.5-0.8,0.8c-0.3,0.3-0.6,0.6-0.8,0.9c-0.3,0.3-0.5,0.6-0.7,0.9c-0.2,0.3-0.4,0.7-0.6,1
			c-0.1,0.3-0.3,0.6-0.4,1l0.9,0.3l-0.8-0.3c-0.2,0.4-0.3,0.7-0.3,1.1c-0.1,0.3-0.1,0.7-0.2,1l0,0l0,0c0,0.3-0.1,0.7-0.1,1
			c0,0.4-0.1,0.8-0.1,1.2c0,0.8,0.1,1.6,0.2,2.4c0.1,0.8,0.4,1.5,0.6,2.2c0.3,0.7,0.7,1.3,1.1,1.9c0.4,0.6,0.9,1.2,1.5,1.7
			c0.6,0.5,1.2,1,1.8,1.4s1.3,0.7,2,1l0,0l0,0c0.6,0.2,1.1,0.4,1.7,0.5c0.5,0.1,1.1,0.2,1.6,0.3h0.1h0.1c0.6-0.1,1.2-0.2,1.7-0.3
			c0.6-0.1,1.1-0.3,1.6-0.5c0.7-0.3,1.4-0.6,2-1.1c0.6-0.4,1.2-0.9,1.8-1.5c0.6-0.6,1.1-1.2,1.5-1.8s0.8-1.3,1-2l-0.9-0.3l0.8,0.4
			c0.3-0.7,0.5-1.4,0.7-2.2c0.1-0.8,0.2-1.5,0.2-2.3s-0.1-1.6-0.2-2.4c-0.1-0.8-0.4-1.5-0.7-2.2c-0.3-0.7-0.7-1.3-1.1-2
			c-0.4-0.6-0.9-1.2-1.5-1.7s-1.2-1-1.8-1.4c-0.6-0.4-1.3-0.8-2.1-1l-0.3,0.9l0.3-0.8c-0.5-0.2-1.1-0.4-1.7-0.5s-1.2-0.2-1.8-0.3
			l0,0l0,0c-0.2,0-0.4,0-0.6,0.1l0,0l0,0L256.3,45.2l0.2,0.9h0.2v-0.9l-0.1,0.9c0.5,0,1,0.1,1.5,0.2c0.5,0.1,1,0.3,1.4,0.5l0,0l0,0
			c0.6,0.2,1.1,0.5,1.7,0.8c0.5,0.4,1,0.8,1.5,1.2c0.5,0.5,0.9,0.9,1.3,1.4s0.7,1,0.9,1.6c0.2,0.6,0.4,1.2,0.5,1.8
			c0.1,0.7,0.2,1.3,0.2,2s-0.1,1.3-0.2,2c-0.1,0.6-0.3,1.2-0.5,1.8l0,0l0,0c-0.2,0.6-0.5,1.1-0.8,1.6c-0.4,0.5-0.8,1-1.3,1.5
			s-1,0.9-1.5,1.3c-0.5,0.3-1.1,0.6-1.7,0.9c-0.5,0.2-0.9,0.3-1.4,0.4s-1,0.2-1.5,0.3l0.1,0.9l0.1-0.9c-0.5-0.1-1-0.1-1.5-0.2
			s-0.9-0.2-1.4-0.4l-0.3,0.8l0.4-0.8c-0.6-0.2-1.2-0.5-1.7-0.9c-0.5-0.3-1.1-0.7-1.5-1.2c-0.5-0.5-0.9-0.9-1.3-1.4
			c-0.4-0.5-0.7-1-0.9-1.6s-0.4-1.2-0.5-1.8s-0.2-1.3-0.2-2c0-0.3,0-0.7,0-1c0-0.4,0.1-0.7,0.1-1l-0.9-0.1l0.9,0.2
			c0.1-0.4,0.1-0.7,0.2-1c0.1-0.3,0.1-0.5,0.3-0.8l0,0l0,0c0.1-0.3,0.2-0.5,0.3-0.8c0.1-0.2,0.2-0.5,0.4-0.8s0.4-0.5,0.6-0.8
			c0.2-0.3,0.4-0.5,0.7-0.8s0.5-0.5,0.7-0.7s0.5-0.4,0.7-0.6c0.3-0.2,0.6-0.4,0.9-0.5c0.3-0.2,0.6-0.3,0.8-0.4
			c0.3-0.1,0.6-0.2,0.9-0.3c0.3-0.1,0.6-0.2,0.9-0.2l0,0l0.2-0.1l0.2-0.1l-0.2-0.9v0.9c0.2,0,0.4,0,0.6-0.1l0,0L256.3,45.2z"/>
		<path class="st0" d="M277.5,32.5h2h3.7v6.2h-2h-3.7V32.5z M277.5,42h2h3.7v27.1h-2h-3.7V42z"/>
		<path class="st0" d="M277.5,32.5v0.9h2h2.8v4.4h-1.1h-2.8v-5.3L277.5,32.5v0.9V32.5h-0.9v7.2h4.6h2.9v-8.1h-4.6h-2.9v0.9H277.5z
			 M277.5,42v0.9h2h2.8v25.3h-1.1h-2.8V42H277.5v0.9V42h-0.9v28h4.6h2.9V41.1h-4.6h-2.9V42H277.5z"/>
		<polygon class="st0" points="289.4,32.5 291.3,32.5 295,32.5 295,69.1 293,69.1 289.4,69.1 		"/>
		<polygon class="st0" points="289.4,32.5 289.4,33.4 291.3,33.4 294.1,33.4 294.1,68.2 293,68.2 290.3,68.2 290.3,32.5 289.4,32.5 
			289.4,33.4 289.4,32.5 288.4,32.5 288.4,70 293,70 295.9,70 295.9,31.6 291.3,31.6 288.4,31.6 288.4,32.5 		"/>
		<path class="st0" d="M305.9,56.9c0,0.7,0.1,1.3,0.3,2c0.1,0.6,0.4,1.2,0.6,1.8c0.3,0.5,0.6,1,1,1.6c0.4,0.5,0.9,1,1.4,1.5
			c0.5,0.5,1.1,0.9,1.6,1.2s1.1,0.6,1.7,0.9c0.5,0.2,0.9,0.3,1.4,0.4c0.4,0.1,0.9,0.2,1.4,0.2c0.4,0,0.7-0.1,1-0.1s0.6-0.1,1-0.2
			c0.5-0.2,0.9-0.3,1.4-0.5s0.9-0.4,1.4-0.7c0.5-0.3,0.9-0.6,1.2-0.9c0.4-0.3,0.7-0.6,1-1s0.6-0.8,0.9-1.2s0.5-0.9,0.7-1.3l3.8-0.1
			h2c-0.2,0.7-0.5,1.4-0.8,2s-0.7,1.2-1.1,1.8c-0.4,0.6-0.9,1.1-1.4,1.6s-1.1,1-1.7,1.4s-1.3,0.8-1.9,1.2c-0.6,0.3-1.3,0.6-2,0.8
			c-0.7,0.2-1.3,0.3-2,0.4s-1.4,0.2-2.1,0.2h-2c-1,0-1.9-0.1-2.8-0.3c-0.9-0.2-1.8-0.4-2.7-0.7c-0.8-0.3-1.6-0.7-2.4-1.2
			s-1.5-1.1-2.2-1.8c-0.7-0.7-1.3-1.4-1.8-2.2s-0.9-1.6-1.3-2.4c-0.3-0.9-0.6-1.7-0.7-2.7c-0.2-0.9-0.2-1.9-0.2-2.8
			c0-1,0.1-1.9,0.2-2.8c0.2-0.9,0.4-1.8,0.7-2.6c0.4-0.9,0.8-1.7,1.3-2.4c0.5-0.8,1.1-1.5,1.8-2.2c0.7-0.7,1.4-1.3,2.1-1.8
			c0.8-0.5,1.6-1,2.4-1.3c0.9-0.4,1.7-0.6,2.6-0.8s1.9-0.2,2.8-0.2h2c0.5,0,1,0,1.6,0.1c0.5,0.1,1,0.1,1.6,0.2
			c0.5,0.1,1,0.3,1.5,0.4c0.5,0.2,1,0.4,1.4,0.6c0.5,0.2,0.9,0.5,1.4,0.8c0.4,0.3,0.9,0.6,1.3,0.9c0.4,0.3,0.8,0.7,1.2,1
			c0.4,0.4,0.7,0.7,1.1,1.1c0.3,0.4,0.6,0.8,0.8,1.2c0.3,0.4,0.5,0.8,0.7,1.2c0.1,0.2,0.2,0.4,0.3,0.6c0.1,0.2,0.2,0.4,0.2,0.6
			c0.1,0.2,0.1,0.4,0.2,0.6c0.1,0.2,0.1,0.4,0.2,0.6c0.1,0.4,0.2,0.9,0.3,1.3c0.1,0.4,0.1,0.9,0.2,1.3c0,0.3,0.1,0.6,0.1,0.9
			c0,0.3,0.1,0.6,0.1,0.9c0,0.1,0,0.3,0,0.4c0,0.1,0,0.3,0,0.5C330.7,56.9,305.9,56.9,305.9,56.9z M324.7,53.6
			c-0.1-0.6-0.3-1.1-0.5-1.7c-0.2-0.5-0.5-1.1-0.8-1.6s-0.6-1-1-1.4c-0.4-0.5-0.8-0.9-1.3-1.3c-0.5-0.4-1-0.8-1.5-1.1
			s-1.1-0.6-1.6-0.8c-0.4-0.2-0.8-0.3-1.2-0.4c-0.4-0.1-0.9-0.2-1.3-0.2c-0.5,0-0.9,0.1-1.4,0.2c-0.4,0.1-0.9,0.2-1.3,0.4
			c-0.6,0.2-1.1,0.4-1.6,0.7s-1,0.6-1.5,1s-1,0.9-1.4,1.3c-0.4,0.5-0.8,0.9-1.1,1.4c-0.3,0.5-0.6,1-0.8,1.6
			c-0.2,0.6-0.4,1.1-0.5,1.7h18.8V53.6z"/>
		<path class="st0" d="M305.9,56.9H305c0,0.7,0.1,1.5,0.3,2.1c0.2,0.7,0.4,1.3,0.7,1.9l0,0l0,0c0.3,0.6,0.7,1.2,1.1,1.7
			c0.4,0.6,0.9,1.1,1.5,1.6c0.6,0.5,1.1,0.9,1.7,1.3s1.2,0.7,1.9,0.9l0,0l0,0c0.5,0.2,1,0.3,1.5,0.4s1,0.2,1.5,0.2h0.1h0.1
			c0.4,0,0.7-0.1,1.1-0.1c0.4-0.1,0.7-0.1,1.1-0.3l0,0l0,0c0.5-0.2,1-0.4,1.5-0.6s1-0.5,1.5-0.8l-0.5-0.8l0.5,0.8
			c0.5-0.3,1-0.6,1.4-1c0.4-0.3,0.7-0.7,1.1-1l0,0l0,0c0.4-0.4,0.7-0.8,1-1.3s0.5-0.9,0.8-1.4l-0.8-0.4V61l3.8-0.1h2V60l-0.9-0.3
			c-0.2,0.7-0.5,1.3-0.8,1.9c-0.3,0.6-0.7,1.1-1.1,1.7c-0.4,0.5-0.8,1-1.3,1.5s-1.1,0.9-1.6,1.4l0.5,0.7l-0.5-0.8
			c-0.6,0.4-1.2,0.8-1.8,1.1c-0.6,0.3-1.2,0.6-1.8,0.7l0.3,0.9l-0.2-0.9c-0.6,0.2-1.3,0.3-2,0.4c-0.6,0.1-1.3,0.2-2,0.2l0,0h-2v0.9
			v-0.9c-1,0-1.9-0.1-2.7-0.3c-0.9-0.2-1.7-0.4-2.5-0.7l-0.3,0.9l0.3-0.8c-0.8-0.3-1.5-0.7-2.3-1.2c-0.7-0.5-1.4-1-2.1-1.7l0,0l0,0
			c-0.6-0.6-1.2-1.3-1.7-2s-0.9-1.5-1.2-2.3l-0.8,0.4l0.9-0.3c-0.3-0.8-0.5-1.6-0.7-2.5s-0.2-1.7-0.2-2.7c0-0.9,0.1-1.8,0.2-2.6
			c0.2-0.9,0.4-1.7,0.7-2.4l-0.8-0.3l0.8,0.4c0.3-0.8,0.8-1.6,1.2-2.3c0.5-0.7,1-1.4,1.7-2l0,0l0,0c0.6-0.7,1.3-1.2,2-1.7
			s1.4-0.9,2.2-1.2l0,0l0,0c0.8-0.3,1.6-0.6,2.5-0.7c0.9-0.2,1.7-0.2,2.7-0.2h2c0.5,0,1,0,1.4,0.1c0.5,0.1,1,0.1,1.5,0.2l0.2-0.9
			l-0.2,0.9c0.5,0.1,1,0.3,1.4,0.4c0.5,0.2,0.9,0.3,1.3,0.5s0.9,0.5,1.3,0.7c0.4,0.3,0.8,0.5,1.2,0.8c0.4,0.3,0.8,0.6,1.1,1
			c0.4,0.3,0.7,0.7,1,1.1l0.7-0.6l-0.7,0.5c0.3,0.4,0.6,0.8,0.8,1.1c0.2,0.4,0.5,0.7,0.6,1.1c0.1,0.2,0.2,0.4,0.3,0.6
			c0.1,0.2,0.1,0.3,0.2,0.5l0.9-0.3l-0.9,0.3c0.1,0.3,0.2,0.5,0.3,0.7c0.1,0.1,0.1,0.3,0.1,0.4l0,0l0,0c0.1,0.4,0.2,0.8,0.3,1.3
			c0.1,0.4,0.1,0.8,0.2,1.2l0,0l0,0c0,0.3,0.1,0.5,0.1,0.8s0.1,0.6,0.1,0.9l0.9-0.1h-0.9c0,0.2,0,0.3,0,0.5l0,0l0,0
			c0,0.1,0,0.2,0,0.4h0.9V56h-25.5v1L305.9,56.9v0.9h25.4v-0.9c0-0.2,0-0.4,0-0.6l0,0c0-0.1,0-0.2,0-0.3v-0.1l0,0
			c0-0.3-0.1-0.6-0.1-0.9c0-0.3-0.1-0.6-0.1-0.9l-0.9,0.1l0.9-0.1c0-0.5-0.1-1-0.2-1.4s-0.2-0.9-0.3-1.3l-0.9,0.2l0.9-0.1
			c0-0.3-0.1-0.5-0.2-0.8c-0.1-0.2-0.1-0.3-0.2-0.5l0,0l0,0c-0.1-0.2-0.2-0.5-0.3-0.7c-0.1-0.2-0.2-0.4-0.3-0.6
			c-0.2-0.4-0.5-0.9-0.8-1.3c-0.3-0.4-0.6-0.8-0.9-1.2l0,0l0,0c-0.4-0.4-0.7-0.8-1.1-1.2s-0.8-0.7-1.2-1.1c-0.4-0.4-0.9-0.7-1.4-1
			s-1-0.6-1.4-0.8c-0.5-0.3-1-0.5-1.6-0.6c-0.5-0.2-1-0.3-1.5-0.5l0,0l0,0c-0.5-0.1-1.1-0.2-1.6-0.3c-0.6-0.1-1.1-0.1-1.7-0.1h-2
			c-1,0-2,0.1-3,0.3s-1.9,0.5-2.8,0.8l0.4,0.8l-0.3-0.8c-0.9,0.4-1.7,0.8-2.6,1.4c-0.8,0.6-1.6,1.2-2.3,2l0.7,0.6l-0.6-0.6
			c-0.7,0.7-1.4,1.5-1.9,2.3s-1,1.7-1.4,2.6l0,0l0,0c-0.4,0.9-0.6,1.8-0.8,2.8c-0.2,1-0.3,2-0.3,3s0.1,2,0.3,3
			c0.2,1,0.4,1.9,0.8,2.8l0,0l0,0c0.4,0.9,0.8,1.7,1.4,2.5c0.6,0.8,1.2,1.6,1.9,2.3l0.6-0.7l-0.6,0.6c0.7,0.7,1.5,1.4,2.4,1.9
			c0.8,0.5,1.7,1,2.6,1.3l0,0l0,0c0.9,0.3,1.8,0.6,2.8,0.7c1,0.2,1.9,0.3,3,0.3l0,0l2-0.1v-0.9v0.9c0.8,0,1.5-0.1,2.3-0.2
			c0.7-0.1,1.4-0.3,2.1-0.4l0,0l0,0c0.7-0.2,1.4-0.5,2.1-0.9s1.3-0.8,2-1.2l0,0l0,0c0.7-0.5,1.3-1,1.8-1.5c0.6-0.5,1.1-1.1,1.5-1.7
			c0.5-0.6,0.9-1.2,1.2-1.9c0.4-0.7,0.7-1.4,0.9-2.2l0.4-1.2h-3.2l-4.4,0.1l-0.2,0.5c-0.2,0.4-0.4,0.8-0.6,1.2s-0.5,0.7-0.8,1
			l0.7,0.6l-0.6-0.6c-0.3,0.3-0.6,0.6-1,0.9c-0.3,0.3-0.7,0.5-1.1,0.8l0,0l0,0c-0.4,0.2-0.8,0.4-1.2,0.6c-0.5,0.2-0.9,0.4-1.4,0.5
			l0.3,0.9l-0.3-0.9c-0.3,0.1-0.6,0.2-0.8,0.2c-0.3,0-0.6,0.1-1,0.1l0.1,0.9l0.1-0.9c-0.4,0-0.8-0.1-1.2-0.2
			c-0.4-0.1-0.8-0.2-1.3-0.4l-0.3,0.9l0.3-0.9c-0.5-0.2-1.1-0.5-1.5-0.8c-0.5-0.3-1-0.7-1.5-1.1c-0.5-0.4-0.9-0.9-1.3-1.3
			c-0.4-0.5-0.7-0.9-0.9-1.4l-0.8,0.4l0.8-0.4c-0.2-0.5-0.4-1-0.6-1.6c-0.1-0.6-0.2-1.1-0.2-1.8L305.9,56.9v0.9V56.9z M324.7,53.6
			l0.9-0.2c-0.1-0.6-0.3-1.2-0.6-1.8c-0.2-0.6-0.5-1.2-0.8-1.7s-0.7-1.1-1.1-1.6s-0.9-1-1.4-1.4c-0.5-0.5-1.1-0.9-1.7-1.2
			s-1.2-0.6-1.8-0.8l-0.3,0.9l0.4-0.8c-0.4-0.2-0.9-0.3-1.4-0.4c-0.5-0.1-1-0.2-1.5-0.2h-0.1h-0.1c-0.5,0-1,0.1-1.5,0.2
			c-0.5,0.1-1,0.3-1.4,0.4l0.3,0.9l-0.3-0.9c-0.6,0.2-1.2,0.5-1.8,0.8c-0.6,0.3-1.1,0.7-1.7,1.1l0,0l0,0c-0.5,0.5-1,0.9-1.4,1.4
			s-0.8,1-1.2,1.6c-0.3,0.5-0.6,1.1-0.8,1.7c-0.2,0.6-0.4,1.3-0.5,1.9l-0.2,1.1h21.1l-0.3-1.1L324.7,53.6v-0.9h-18.9v0.9l0.9,0.1
			c0.1-0.5,0.2-1.1,0.4-1.6c0.2-0.5,0.4-1,0.7-1.4c0.3-0.4,0.6-0.9,1-1.3c0.4-0.4,0.8-0.9,1.3-1.3l-0.6-0.7l0.6,0.7
			c0.5-0.4,0.9-0.7,1.4-1s1-0.5,1.5-0.7l0,0l0,0c0.4-0.1,0.8-0.3,1.2-0.4c0.4-0.1,0.8-0.1,1.2-0.2l-0.1-0.9l-0.1,0.9
			c0.4,0,0.8,0.1,1.2,0.2c0.4,0.1,0.7,0.2,1.1,0.4l0,0l0,0c0.5,0.2,1,0.4,1.5,0.7s0.9,0.6,1.4,1s0.9,0.8,1.2,1.2
			c0.4,0.4,0.7,0.9,1,1.3c0.3,0.5,0.5,0.9,0.7,1.4s0.4,1,0.5,1.5L324.7,53.6v-0.9V53.6z"/>
	</g>
	<g>
		<g>
			<path class="st0" d="M365.5,41.6c-1.7-2.3-3.6-4.1-5.7-5.2c-2.1-1.1-4.5-1.7-7.2-1.7c-4.2,0-7.8,1.6-10.8,4.7
				c-3,3.1-4.5,6.8-4.5,11.1c0,4.6,1.5,8.4,4.4,11.5c3,3.1,6.6,4.7,10.8,4.7c2.6,0,5-0.5,7.1-1.6s3.9-2.7,5.5-4.9h4.4
				c-1.7,3.2-4,5.7-6.9,7.5s-6.2,2.6-9.8,2.6c-5.5,0-10.2-1.9-13.9-5.7c-3.7-3.8-5.6-8.5-5.6-14.2c0-2.6,0.5-5.1,1.5-7.5
				s2.5-4.5,4.4-6.4c1.8-1.8,3.8-3.2,6.1-4.1c2.2-0.9,4.7-1.4,7.3-1.4c3.7,0,7.1,0.9,10.1,2.7s5.4,4.4,7.1,7.8h-4.3V41.6z"/>
			<path class="st0" d="M398.9,65c-1.1,1.6-2.7,2.9-4.6,3.9c-1.9,0.9-4,1.4-6.3,1.4c-4.2,0-7.7-1.4-10.4-4.3
				c-2.8-2.9-4.2-6.4-4.2-10.6c0-4.3,1.4-7.8,4.3-10.7c2.8-2.9,6.4-4.3,10.7-4.3c2.2,0,4.2,0.4,6,1.3c1.8,0.9,3.4,2.2,4.6,3.8V41
				h3.6v28.5H399V65H398.9z M398.9,55.1c0-3-1.1-5.7-3.2-7.9c-2.2-2.3-4.6-3.4-7.5-3.4c-3.1,0-5.7,1.1-7.8,3.4
				c-2.2,2.3-3.2,5.1-3.2,8.4c0,3.2,1.1,5.9,3.2,8c2.1,2.2,4.7,3.3,7.7,3.3c2.9,0,5.4-1.2,7.6-3.5C397.8,61.1,398.9,58.3,398.9,55.1
				z"/>
			<path class="st0" d="M408.1,41h3.6v15.1c0,3.9,0.6,6.6,1.9,8.3c1.3,1.6,3.3,2.4,6.2,2.4c1.6,0,3.1-0.3,4.3-1
				c1.2-0.7,2.2-1.6,3-2.9c0.4-0.7,0.7-1.6,0.9-2.6c0.2-1,0.3-2.8,0.3-5.3V41h3.7v28.5h-3.7v-3.1c-1.1,1.3-2.3,2.3-3.7,2.9
				c-1.4,0.6-3,0.9-5,0.9c-4.1,0-7.1-1.1-8.9-3.3c-1.8-2.2-2.7-5.9-2.7-11.1V41H408.1z"/>
			<path class="st0" d="M436,60.5h3.8v0.1c0,1.8,0.5,3.3,1.5,4.4c1,1.2,2.3,1.7,3.8,1.7c1.4,0,2.6-0.4,3.6-1.3
				c0.9-0.9,1.4-2,1.4-3.4s-0.4-2.5-1.1-3.3c-0.8-0.8-2.1-1.6-4.1-2.3c-3.2-1.1-5.2-2.3-6.2-3.4c-1-1.2-1.5-2.7-1.5-4.7
				c0-2.2,0.8-4.1,2.4-5.7c1.6-1.6,3.6-2.3,5.9-2.3c2.4,0,4.4,0.7,5.8,2.1c1.4,1.4,2.2,3.3,2.3,5.8h-3.9c-0.1-1.3-0.5-2.4-1.3-3.1
				c-0.8-0.7-1.8-1.1-3.1-1.1c-1.2,0-2.2,0.4-3,1.2s-1.2,1.8-1.2,3c0,0.8,0.2,1.6,0.5,2.1c0.3,0.6,0.9,1.1,1.6,1.6
				c0.7,0.4,1.7,0.8,3,1.2s2.2,0.7,2.7,0.9c1.8,0.8,3.1,1.8,3.9,3c0.8,1.3,1.3,2.9,1.3,4.8c0,2.5-0.9,4.5-2.6,6.1
				c-1.7,1.6-3.9,2.4-6.5,2.4c-2.7,0-4.8-0.9-6.5-2.6C437,65.9,436.1,63.5,436,60.5z"/>
			<path class="st0" d="M486.5,56.4h-25.7c0.2,3.1,1.3,5.6,3.4,7.5c2,1.9,4.5,2.9,7.6,2.9c2.1,0,4.1-0.6,5.8-1.7
				c1.7-1.1,3-2.7,4-4.6h4.1c-1.3,3.2-3.2,5.6-5.5,7.3c-2.4,1.7-5.1,2.5-8.3,2.5c-4.1,0-7.7-1.5-10.5-4.4c-2.9-3-4.3-6.5-4.3-10.7
				c0-4.3,1.4-7.9,4.2-10.8c2.8-2.8,6.4-4.3,10.8-4.3c4.3,0,7.8,1.5,10.5,4.4s4.1,6.8,4.1,11.5v0.4H486.5z M482.4,53.2
				c-0.7-3.2-2-5.6-3.8-7.2s-4.3-2.4-7.2-2.4c-2.8,0-5.1,0.9-7,2.6c-1.9,1.7-3.1,4-3.5,7C460.9,53.2,482.4,53.2,482.4,53.2z"/>
		</g>
	</g>
</g>
</svg>
