<?xml version="1.0" encoding="utf-8"?>
<!-- Generator: Adobe Illustrator 19.1.0, SVG Export Plug-In . SVG Version: 6.00 Build 0)  -->
<svg version="1.1" id="Layer_1" xmlns="http://www.w3.org/2000/svg" xmlns:xlink="http://www.w3.org/1999/xlink" x="0px" y="0px"
	 viewBox="0 0 525 100" style="enable-background:new 0 0 525 100;" xml:space="preserve">
<style type="text/css">
	.st0{fill:#CECECE;}
	.st1{fill:url(#SVGID_7_);}
	.st2{fill:url(#SVGID_8_);}
	.st3{fill:url(#SVGID_9_);}
	.st4{fill:url(#SVGID_10_);}
	.st5{fill:url(#SVGID_11_);}
	.st6{fill:url(#SVGID_12_);}
	.st7{fill:url(#SVGID_13_);}
	.st8{fill:url(#SVGID_14_);}
	.st9{fill:url(#SVGID_15_);}
	.st10{fill:url(#SVGID_16_);}
	.st11{fill:url(#SVGID_17_);}
	.st12{fill:url(#SVGID_18_);}
	.st13{fill:url(#SVGID_19_);}
	.st14{fill:url(#SVGID_20_);}
	.st15{fill:url(#SVGID_21_);}
	.st16{fill:url(#SVGID_22_);}
	.st17{fill:url(#SVGID_23_);}
	.st18{fill:#FFFFFF;}
	.st19{fill:#808080;}
</style>
<g>
	<g>
		<g>
			<defs>
				<path id="SVGID_1_" d="M107.8,17.2c-10.6,4.3-17.5,10.5-23.2,17.3C75.1,45.7,68.4,62,68.2,72.7c-0.2,15.1,9.1,22.9,9.1,22.9
					s-9.5-0.8-16.2-8.9c-4.6-5.5-5.8-16.9-4.6-24.8c2.7-18.9,14.6-36,26.8-45.6c0.2-0.2,0.4-0.3,0.7-0.5c1.7-1.8,2.4-3.2-1-3
					c-2.2,0.1-4.5,1.4-6.6,3c-1.9,1.7-3.9,3.6-5.9,5.7c-0.4,0.4-0.5,0.7-0.5,0.7s0-0.1,0.1-0.1c-0.6,0.7-1.2,1.3-1.8,2
					c-18.3,21.2-17.2,39.4-17,44.8c0.4,10.1,3.1,15.9,3.1,15.9s-3.5-1.6-6.6-6.1c-3.1-4.5-10-13.4-3-35.1c0.1-0.3,0.2-0.7,0.3-1
					c0.2-1,1.7-4.7,2.8-7.9c0.9-2.7,0.9-4-0.4-3.9c-1,0-2,1.7-3.4,4.3c-1.8,3.5-3.5,7.8-4.4,11.5c-1.2,4.9-1.4,9-1.5,11
					c-0.2,4.4,0.8,7.2,0.8,7.2s-2.1-3.4-2.8-8.5C35.7,53,36.2,46,39.3,38c7.6-19.6,35.6-47,78.4-27.1c9.4,4.4,14.3,10.4,14.3,10.4
					S121,11.8,107.8,17.2L107.8,17.2z"/>
			</defs>
			<radialGradient id="SVGID_2_" cx="83.9804" cy="49.8173" r="46.8981" gradientUnits="userSpaceOnUse">
				<stop  offset="5.617980e-03" style="stop-color:#BC3235"/>
				<stop  offset="0.5084" style="stop-color:#BA3234"/>
				<stop  offset="0.6895" style="stop-color:#B33133"/>
				<stop  offset="0.8186" style="stop-color:#A8302F"/>
				<stop  offset="0.9222" style="stop-color:#972F2B"/>
				<stop  offset="0.9663" style="stop-color:#8D2E28"/>
			</radialGradient>
			<use xlink:href="#SVGID_1_"  style="overflow:visible;fill-rule:evenodd;clip-rule:evenodd;fill:url(#SVGID_2_);"/>
			<clipPath id="SVGID_3_">
				<use xlink:href="#SVGID_1_"  style="overflow:visible;"/>
			</clipPath>
		</g>
	</g>
	<g>
		<g>
			<defs>
				<path id="SVGID_4_" d="M115.1,87.3c-8.5,6.1-18.6,10.6-29.4,9.7c-1.2-0.1-2.5-0.2-3.8-0.4c6.1-1.4,13.2-3.8,20.5-8.9
					c6.7-4.6,14.5-11.7,21.5-22.1c2.9-4.3,5.7-9.2,7.6-12.8l5.9,4.1C137.5,57,129.9,76.7,115.1,87.3L115.1,87.3z M85.1,89.3
					c-2.6,1.2-5.7,2.1-8.8,2.8c-0.4-0.5-0.9-1.2-1.4-1.9c-1.2-1.9-2.5-4.5-3.5-7.2c5.4-1.5,10.2-3.2,15.3-6
					c17.9-9.8,26.1-28,27.8-31.7c0.6-1.2,1.1-2.3,1.5-3.3l9.5,6.6c-0.4,1.1-0.9,2.3-1.5,3.6C113.6,75.7,92,86.3,85.1,89.3L85.1,89.3
					z M70.2,77.6c-0.5-4.7-0.1-8.8,0.2-10.9c4.8-1.7,9.5-4.5,13.6-8c7-6,13.8-16.7,16.3-22.9c0.9-2.2,1.2-3.7,1.2-3.7l9.3,6.4
					c-0.4,1-0.9,2.3-1.4,3.7C98.9,67.1,77.1,76.2,70.2,77.6L70.2,77.6z M59.1,87.9c-1.5-1-2.9-2.1-4.2-3.3c1.1,0,2.4,0.1,3.7,0
					c1.2,2.1,2.9,4.1,5.1,6C62.2,89.8,60.6,88.9,59.1,87.9L59.1,87.9z M52.7,72.8c-0.1-2-0.2-4-0.3-5.4c0.9,0.2,1.8,0.4,2.8,0.6
					c0,1.9,0.1,5,0.3,7.2c0.1,0.9,0.2,2,0.5,3.2c-0.9,0-1.8-0.1-2.7-0.1C53.1,76.9,52.8,74.8,52.7,72.8L52.7,72.8z"/>
			</defs>
			<radialGradient id="SVGID_5_" cx="94.9443" cy="64.5966" r="37.8687" gradientUnits="userSpaceOnUse">
				<stop  offset="5.617980e-03" style="stop-color:#6B7377"/>
				<stop  offset="0.9775" style="stop-color:#3F4647"/>
			</radialGradient>
			<use xlink:href="#SVGID_4_"  style="overflow:visible;fill-rule:evenodd;clip-rule:evenodd;fill:url(#SVGID_5_);"/>
			<clipPath id="SVGID_6_">
				<use xlink:href="#SVGID_4_"  style="overflow:visible;"/>
			</clipPath>
		</g>
	</g>
	<g>
		<g>
			<linearGradient id="SVGID_7_" gradientUnits="userSpaceOnUse" x1="176.1844" y1="22.4004" x2="177.406" y2="72.4786">
				<stop  offset="5.617980e-03" style="stop-color:#BC3235"/>
				<stop  offset="0.5084" style="stop-color:#BA3234"/>
				<stop  offset="0.6895" style="stop-color:#B33133"/>
				<stop  offset="0.8186" style="stop-color:#A8302F"/>
				<stop  offset="0.9222" style="stop-color:#972F2B"/>
				<stop  offset="0.9663" style="stop-color:#8D2E28"/>
			</linearGradient>
			<polygon class="st1" points="156.8,32.4 158.8,32.4 164.5,32.4 176.9,61.3 189.3,32.4 191.3,32.4 196.9,32.4 196.9,69.1 
				194.9,69.1 191.3,69.1 191.3,41.2 179.4,69.1 177.4,69.1 174.3,69.1 162.5,41.2 162.5,69.1 160.5,69.1 156.8,69.1 			"/>
			<linearGradient id="SVGID_8_" gradientUnits="userSpaceOnUse" x1="176.184" y1="22.4004" x2="177.4055" y2="72.4778">
				<stop  offset="5.617980e-03" style="stop-color:#BC3235"/>
				<stop  offset="0.5084" style="stop-color:#BA3234"/>
				<stop  offset="0.6895" style="stop-color:#B33133"/>
				<stop  offset="0.8186" style="stop-color:#A8302F"/>
				<stop  offset="0.9222" style="stop-color:#972F2B"/>
				<stop  offset="0.9663" style="stop-color:#8D2E28"/>
			</linearGradient>
			<polygon class="st2" points="156.8,32.4 156.8,33.3 158.8,33.3 163.9,33.3 176.9,63.6 189.9,33.3 191.3,33.3 196,33.3 196,68.2 
				194.9,68.2 192.2,68.2 192.2,41.2 190.4,40.8 178.8,68.2 177.4,68.2 174.9,68.2 163.3,40.8 161.6,41.2 161.6,68.2 160.5,68.2 
				157.7,68.2 157.7,32.4 156.8,32.4 156.8,33.3 156.8,32.4 155.9,32.4 155.9,70 160.5,70 163.4,70 163.4,45.7 173.7,70 177.4,70 
				180,70 190.4,45.7 190.4,70 194.9,70 197.9,70 197.9,31.5 191.3,31.5 188.7,31.5 176.9,59 165.1,31.5 158.8,31.5 155.9,31.5 
				155.9,32.4 			"/>
		</g>
		<linearGradient id="SVGID_9_" gradientUnits="userSpaceOnUse" x1="217.0851" y1="21.5705" x2="218.3025" y2="71.4735">
			<stop  offset="5.617980e-03" style="stop-color:#BC3235"/>
			<stop  offset="0.5084" style="stop-color:#BA3234"/>
			<stop  offset="0.6895" style="stop-color:#B33133"/>
			<stop  offset="0.8186" style="stop-color:#A8302F"/>
			<stop  offset="0.9222" style="stop-color:#972F2B"/>
			<stop  offset="0.9663" style="stop-color:#8D2E28"/>
		</linearGradient>
		<path class="st3" d="M221.7,41.8c0.9,0.2,1.7,0.5,2.5,0.8c0.8,0.3,1.6,0.8,2.4,1.3c0.8,0.5,1.5,1.1,2.2,1.8
			c0.7,0.7,1.3,1.4,1.8,2.2c0.5,0.8,1,1.6,1.3,2.4c0.4,0.8,0.6,1.7,0.8,2.5c0.2,0.9,0.3,1.8,0.3,2.7c0,1-0.1,1.9-0.2,2.8
			c-0.2,0.9-0.4,1.8-0.8,2.6c-0.3,0.8-0.8,1.6-1.3,2.4c-0.5,0.8-1.1,1.5-1.8,2.2c-0.7,0.7-1.4,1.3-2.2,1.9c-0.7,0.5-1.5,0.9-2.4,1.3
			c-0.8,0.3-1.7,0.6-2.6,0.7c-0.9,0.2-1.8,0.2-2.8,0.2l-2,0c-1,0-1.9-0.1-2.8-0.3c-0.9-0.2-1.8-0.4-2.6-0.7
			c-0.8-0.3-1.6-0.7-2.4-1.2c-0.8-0.5-1.5-1.1-2.2-1.8c-0.7-0.7-1.3-1.4-1.9-2.1c-0.5-0.8-0.9-1.6-1.3-2.4c-0.3-0.8-0.6-1.7-0.8-2.6
			c-0.2-0.9-0.3-1.8-0.3-2.8c0-1,0.1-1.9,0.2-2.8c0.2-0.9,0.4-1.8,0.7-2.6c0.4-0.9,0.8-1.7,1.3-2.4c0.5-0.8,1.1-1.5,1.8-2.2
			c0.7-0.7,1.4-1.3,2.2-1.8c0.8-0.5,1.6-1,2.4-1.3c0.9-0.4,1.7-0.6,2.7-0.8c0.9-0.2,1.9-0.3,2.8-0.3v-0.1h2
			C219.9,41.5,220.8,41.6,221.7,41.8z M216.2,45.4c-0.5,0.1-0.9,0.3-1.4,0.5c-0.6,0.3-1.2,0.6-1.8,1c-0.6,0.4-1.1,0.9-1.6,1.4
			c-0.5,0.5-1,1.1-1.3,1.7c-0.4,0.6-0.7,1.2-0.9,1.9c-0.2,0.6-0.4,1.3-0.5,2c-0.1,0.7-0.2,1.4-0.2,2.1c0,0.7,0.1,1.4,0.2,2.1
			c0.1,0.7,0.3,1.3,0.5,2c0.3,0.6,0.6,1.2,1,1.8c0.4,0.6,0.8,1.1,1.4,1.6c0.5,0.5,1.1,1,1.6,1.4c0.6,0.4,1.2,0.7,1.8,1
			c0.5,0.2,1,0.3,1.5,0.4c0.5,0.1,1.1,0.2,1.6,0.2c0.6-0.1,1.1-0.1,1.6-0.2c0.5-0.1,1-0.3,1.5-0.5c0.6-0.3,1.2-0.6,1.8-1
			c0.6-0.4,1.1-0.9,1.6-1.4c0.5-0.5,0.9-1.1,1.3-1.7c0.4-0.6,0.7-1.2,0.9-1.8c0.3-0.7,0.5-1.3,0.6-2c0.1-0.7,0.2-1.4,0.2-2.1
			c0-0.4,0-0.7,0-1.1c0-0.4-0.1-0.7-0.1-1c-0.1-0.3-0.1-0.7-0.2-1c-0.1-0.3-0.2-0.6-0.3-1c-0.1-0.3-0.3-0.6-0.4-0.9
			c-0.1-0.3-0.3-0.6-0.5-0.9c-0.2-0.3-0.4-0.5-0.7-0.8c-0.2-0.3-0.5-0.6-0.8-0.8c-0.2-0.2-0.5-0.4-0.8-0.6c-0.3-0.2-0.6-0.4-0.8-0.6
			c-0.3-0.2-0.5-0.3-0.8-0.5c-0.3-0.2-0.6-0.3-0.9-0.4c-0.3-0.1-0.7-0.2-1-0.3c-0.3-0.1-0.6-0.2-1-0.2c-0.1,0-0.1,0-0.2,0
			c-0.1,0-0.2,0-0.2,0l-0.1,0l-0.1,0c-0.1,0-0.2,0-0.3,0c-0.1,0-0.2,0-0.3,0C217.2,45.2,216.7,45.3,216.2,45.4z"/>
		<linearGradient id="SVGID_10_" gradientUnits="userSpaceOnUse" x1="217.0853" y1="21.5702" x2="218.3027" y2="71.4736">
			<stop  offset="5.617980e-03" style="stop-color:#BC3235"/>
			<stop  offset="0.5084" style="stop-color:#BA3234"/>
			<stop  offset="0.6895" style="stop-color:#B33133"/>
			<stop  offset="0.8186" style="stop-color:#A8302F"/>
			<stop  offset="0.9222" style="stop-color:#972F2B"/>
			<stop  offset="0.9663" style="stop-color:#8D2E28"/>
		</linearGradient>
		<path class="st4" d="M221.7,41.8l-0.2,0.9c0.8,0.2,1.6,0.4,2.3,0.8l0,0l0,0c0.8,0.3,1.5,0.7,2.2,1.2c0.7,0.5,1.4,1.1,2.1,1.7
			l0.6-0.7l-0.6,0.6c0.7,0.7,1.2,1.3,1.7,2.1c0.5,0.7,0.9,1.4,1.2,2.2l0,0l0,0c0.3,0.8,0.6,1.6,0.8,2.3c0.2,0.8,0.3,1.6,0.3,2.5
			c0,0.9-0.1,1.8-0.2,2.6c-0.2,0.8-0.4,1.6-0.7,2.4l0,0l0,0c-0.3,0.8-0.7,1.5-1.2,2.3c-0.5,0.7-1.1,1.4-1.7,2.1
			c-0.7,0.7-1.3,1.3-2,1.7c-0.7,0.5-1.4,0.9-2.2,1.2l0.4,0.8l-0.3-0.8c-0.8,0.3-1.6,0.5-2.4,0.7c-0.9,0.2-1.7,0.2-2.6,0.2h0l-2,0
			l0,0.9l0-0.9c-0.9,0-1.8-0.1-2.6-0.3c-0.8-0.2-1.7-0.4-2.5-0.7l-0.3,0.9l0.3-0.8c-0.8-0.3-1.5-0.7-2.3-1.2c-0.7-0.5-1.4-1-2.1-1.7
			l0,0l0,0c-0.7-0.6-1.2-1.3-1.7-2c-0.5-0.7-0.9-1.5-1.2-2.2l-0.8,0.4l0.8-0.3c-0.3-0.8-0.6-1.6-0.7-2.4c-0.2-0.8-0.3-1.7-0.3-2.6
			c0-0.9,0.1-1.8,0.2-2.7c0.2-0.9,0.4-1.7,0.7-2.4l-0.8-0.3l0.8,0.4c0.3-0.8,0.7-1.6,1.2-2.3c0.5-0.7,1.1-1.4,1.7-2.1l-0.7-0.6
			l0.6,0.6c0.7-0.7,1.3-1.2,2.1-1.7c0.7-0.5,1.5-0.9,2.2-1.2l0,0l0,0c0.8-0.3,1.6-0.6,2.5-0.8c0.8-0.2,1.7-0.3,2.7-0.3h0.9v-0.1h1.1
			v-0.9l0,0.9c0.9,0,1.8,0.1,2.6,0.3L221.7,41.8l0.2-0.9c-0.9-0.2-1.9-0.3-2.9-0.3l0,0h-2.9v1h0.9v-0.9c-1,0-2.1,0.1-3,0.3
			c-1,0.2-1.9,0.5-2.8,0.9l0.4,0.8l-0.3-0.8c-0.9,0.4-1.7,0.8-2.6,1.4c-0.8,0.6-1.6,1.2-2.3,1.9l0,0l0,0c-0.7,0.8-1.4,1.5-1.9,2.3
			c-0.5,0.8-1,1.7-1.4,2.6l0,0l0,0c-0.4,0.9-0.6,1.8-0.8,2.8c-0.2,1-0.3,2-0.3,3c0,1,0.1,2,0.3,3c0.2,0.9,0.5,1.9,0.8,2.7l0,0l0,0
			c0.4,0.9,0.8,1.7,1.4,2.5c0.6,0.8,1.2,1.6,2,2.3l0.6-0.7l-0.6,0.6c0.7,0.7,1.5,1.4,2.4,1.9c0.8,0.5,1.7,1,2.6,1.3l0,0l0,0
			c0.9,0.3,1.8,0.6,2.8,0.7c0.9,0.2,1.9,0.3,2.9,0.3l0,0l2-0.1l0-0.9v0.9c1,0,2-0.1,3-0.3c1-0.2,1.9-0.4,2.8-0.8l0,0l0,0
			c0.9-0.4,1.8-0.9,2.6-1.4c0.8-0.6,1.6-1.2,2.3-2c0.7-0.7,1.3-1.5,1.9-2.4c0.6-0.8,1-1.7,1.4-2.6l-0.8-0.3l0.8,0.4
			c0.4-0.9,0.7-1.9,0.8-2.8c0.2-0.9,0.3-1.9,0.3-2.9c0-1-0.1-2-0.3-2.9c-0.2-0.9-0.5-1.8-0.9-2.7l-0.8,0.4l0.8-0.3
			c-0.4-0.9-0.8-1.7-1.4-2.6c-0.6-0.8-1.2-1.6-1.9-2.3l0,0l0,0c-0.8-0.7-1.5-1.4-2.3-1.9c-0.8-0.6-1.7-1-2.6-1.4l-0.3,0.8l0.4-0.8
			c-0.9-0.4-1.8-0.7-2.7-0.9L221.7,41.8z M216.2,45.4l-0.3-0.9c-0.5,0.1-1,0.3-1.5,0.5l0,0c-0.7,0.3-1.3,0.7-2,1.1
			c-0.6,0.4-1.2,0.9-1.7,1.5l0.7,0.6l-0.6-0.6c-0.6,0.6-1.1,1.2-1.5,1.8c-0.4,0.6-0.7,1.3-1,2l0,0l0,0c-0.2,0.7-0.4,1.4-0.6,2.1
			c-0.1,0.7-0.2,1.5-0.2,2.3c0,0.8,0.1,1.5,0.2,2.3c0.1,0.7,0.3,1.4,0.6,2.1l0,0l0,0c0.3,0.7,0.6,1.3,1.1,1.9
			c0.4,0.6,0.9,1.2,1.5,1.7l0.6-0.7l-0.6,0.6c0.6,0.6,1.2,1.1,1.8,1.5c0.6,0.4,1.3,0.8,1.9,1.1l0,0l0,0c0.5,0.2,1.1,0.4,1.7,0.5
			c0.5,0.1,1.1,0.2,1.6,0.3l0.1,0l0.1,0c0.6-0.1,1.1-0.2,1.7-0.3c0.6-0.1,1.2-0.3,1.7-0.6l-0.4-0.8l0.4,0.8c0.7-0.3,1.4-0.7,2-1.1
			c0.6-0.4,1.2-1,1.7-1.5l0,0l0,0c0.5-0.6,0.9-1.1,1.3-1.8c0.4-0.6,0.8-1.3,1-2l-0.9-0.3l0.8,0.3c0.3-0.7,0.5-1.5,0.6-2.2
			c0.1-0.7,0.2-1.5,0.2-2.3c0-0.4,0-0.8-0.1-1.2c0-0.4-0.1-0.8-0.2-1.1c-0.1-0.4-0.2-0.7-0.3-1.1c-0.1-0.3-0.2-0.7-0.4-1l0,0l0,0
			c-0.1-0.3-0.3-0.6-0.4-0.9c-0.2-0.3-0.4-0.7-0.6-1l0,0l0,0c-0.2-0.3-0.5-0.6-0.7-0.9c-0.3-0.3-0.5-0.6-0.8-0.9
			c-0.3-0.3-0.6-0.5-0.9-0.7c-0.3-0.2-0.5-0.4-0.8-0.6l0,0l0,0c-0.3-0.2-0.6-0.3-0.9-0.5c-0.3-0.2-0.6-0.3-1-0.5l0,0l0,0
			c-0.3-0.1-0.7-0.3-1-0.4c-0.3-0.1-0.7-0.2-1.1-0.3l-0.1,0H219h0l0,0l0,0l0,0c-0.1,0-0.2,0-0.4,0v0.9l0.2-0.9l-0.1,0l0,0l-0.1,0
			l-0.1,0h-0.1l-0.2,0l0,0l0,0c-0.2,0-0.3,0-0.5,0h-0.1l-0.1,0c-0.6,0.1-1.1,0.2-1.6,0.3L216.2,45.4l0.3,0.9
			c0.4-0.1,0.9-0.2,1.4-0.3l-0.1-0.9V46l0.2,0l0,0l0,0c0.2,0,0.3,0,0.5,0v-0.9l-0.2,0.9l0.1,0l0.1,0l0.1,0h0.1l0,0l0,0l0.2-0.9
			l-0.2,0.9c0.1,0,0.3,0,0.4,0v-0.9l-0.2,0.9c0.3,0.1,0.6,0.1,0.9,0.2c0.3,0.1,0.6,0.2,0.9,0.3l0.3-0.8l-0.4,0.8
			c0.3,0.1,0.5,0.3,0.8,0.4c0.3,0.2,0.6,0.3,0.8,0.5l0.5-0.8l-0.5,0.7c0.3,0.2,0.6,0.4,0.8,0.6c0.2,0.2,0.5,0.4,0.6,0.5
			c0.2,0.2,0.5,0.5,0.7,0.8c0.2,0.3,0.4,0.5,0.6,0.8l0.7-0.5l-0.8,0.5c0.2,0.3,0.3,0.5,0.5,0.8c0.1,0.3,0.3,0.6,0.4,0.9l0.8-0.4
			l-0.8,0.3c0.1,0.3,0.2,0.6,0.3,0.9c0.1,0.3,0.2,0.6,0.2,0.9c0.1,0.3,0.1,0.6,0.1,0.9c0,0.3,0,0.7,0,1c0,0.7-0.1,1.3-0.2,2
			c-0.1,0.6-0.3,1.2-0.5,1.8l0,0l0,0c-0.2,0.6-0.5,1.1-0.8,1.6c-0.4,0.5-0.8,1.1-1.2,1.6l0.7,0.6l-0.7-0.6c-0.5,0.5-0.9,0.9-1.5,1.3
			c-0.5,0.4-1,0.7-1.6,0.9l0,0l0,0c-0.4,0.2-0.8,0.3-1.2,0.4c-0.5,0.1-1,0.2-1.6,0.2l0.1,0.9l0.1-0.9c-0.5-0.1-1-0.1-1.5-0.2
			c-0.5-0.1-0.9-0.2-1.3-0.4l0,0l0,0c-0.6-0.2-1.1-0.5-1.6-0.9c-0.5-0.3-1-0.8-1.5-1.3l0,0l0,0c-0.5-0.5-0.9-0.9-1.2-1.4
			c-0.3-0.5-0.6-1.1-0.9-1.6l-0.8,0.4l0.9-0.3c-0.2-0.6-0.4-1.2-0.5-1.8c-0.1-0.6-0.2-1.3-0.2-1.9c0-0.7,0.1-1.3,0.2-1.9
			c0.1-0.6,0.3-1.2,0.5-1.8l-0.9-0.3l0.8,0.3c0.2-0.6,0.5-1.2,0.9-1.7c0.3-0.5,0.7-1,1.2-1.5l0,0l0,0c0.5-0.5,0.9-0.9,1.4-1.3
			c0.5-0.4,1-0.7,1.6-0.9l0,0c0.4-0.2,0.9-0.3,1.3-0.5L216.2,45.4z"/>
		<linearGradient id="SVGID_11_" gradientUnits="userSpaceOnUse" x1="252.5223" y1="20.7053" x2="253.7397" y2="70.6093">
			<stop  offset="5.617980e-03" style="stop-color:#BC3235"/>
			<stop  offset="0.5084" style="stop-color:#BA3234"/>
			<stop  offset="0.6895" style="stop-color:#B33133"/>
			<stop  offset="0.8186" style="stop-color:#A8302F"/>
			<stop  offset="0.9222" style="stop-color:#972F2B"/>
			<stop  offset="0.9663" style="stop-color:#8D2E28"/>
		</linearGradient>
		<path class="st5" d="M238.3,32.5h2h3.7v12c0.3-0.2,0.5-0.4,0.8-0.6c0.2-0.2,0.5-0.4,0.8-0.5c0.4-0.2,0.8-0.4,1.2-0.6
			c0.4-0.2,0.8-0.3,1.2-0.5c0.4-0.2,0.8-0.3,1.3-0.4c0.4-0.1,0.9-0.2,1.3-0.2h0.2l0.2,0h0.2h0.2h0.2l0.2,0h2h0.2h0.2
			c1,0,1.9,0.1,2.8,0.2c0.9,0.2,1.8,0.4,2.7,0.7c0.9,0.3,1.7,0.8,2.5,1.3c0.8,0.5,1.6,1.1,2.3,1.8c0.7,0.7,1.4,1.4,1.9,2.1
			c0.5,0.7,1,1.5,1.4,2.4c0.4,0.8,0.6,1.7,0.8,2.6c0.2,0.9,0.3,1.9,0.3,2.9c0,0.4,0,0.9-0.1,1.3c0,0.4-0.1,0.8-0.2,1.2
			c-0.1,0.4-0.1,0.8-0.2,1.2c-0.1,0.4-0.2,0.8-0.3,1.1c-0.1,0.2-0.1,0.4-0.2,0.5c-0.1,0.2-0.1,0.3-0.2,0.5c-0.1,0.2-0.2,0.3-0.2,0.5
			c-0.1,0.1-0.1,0.3-0.2,0.5c-0.1,0.3-0.3,0.6-0.5,0.8c-0.2,0.2-0.4,0.5-0.5,0.7L266,64v0.1l-0.1,0.1l0,0.1l-0.1,0.1l-0.1,0.1
			c-0.2,0.2-0.4,0.4-0.6,0.6c-0.2,0.2-0.4,0.4-0.5,0.6c-0.2,0.2-0.4,0.4-0.6,0.5c-0.2,0.1-0.4,0.3-0.5,0.5c-0.2,0.1-0.4,0.3-0.6,0.4
			c-0.2,0.1-0.4,0.3-0.5,0.4c-0.2,0.1-0.4,0.2-0.6,0.3c-0.2,0.1-0.4,0.2-0.5,0.3c-0.3,0.1-0.5,0.3-0.8,0.4c-0.3,0.1-0.6,0.2-0.8,0.3
			c-0.3,0.1-0.5,0.1-0.8,0.2c-0.3,0.1-0.6,0.1-0.8,0.1c-0.1,0-0.3,0.1-0.4,0.1c-0.1,0-0.3,0-0.4,0.1c-0.1,0-0.3,0-0.4,0
			c-0.1,0-0.3,0-0.4,0.1c-0.1,0-0.3,0-0.4,0c-0.1,0-0.3,0-0.4,0c-0.2,0-0.3,0-0.4,0c-0.1,0-0.3,0-0.4,0l-2,0l-0.2,0h-0.2h-0.3
			l-0.1,0h-0.1l-0.1,0h-0.1h-0.1h-0.1h-0.1H251h-0.1l-0.1,0h-0.1h-0.3l-0.1,0h-0.1l-0.1,0H250h-0.1l-0.1,0h-0.1
			c-0.4-0.1-0.8-0.1-1.2-0.2c-0.4-0.1-0.8-0.2-1.1-0.3c-0.4-0.1-0.7-0.3-1.1-0.4c-0.4-0.2-0.7-0.4-1.1-0.6c-0.3-0.2-0.5-0.3-0.7-0.5
			c-0.2-0.1-0.5-0.3-0.7-0.5v2.2h-2h-3.5V32.5z M252.9,45.2c-0.1,0-0.3,0-0.4,0l-0.2,0.1l-0.2,0c-0.3,0.1-0.7,0.1-1,0.2
			c-0.3,0.1-0.7,0.2-1,0.3c-0.3,0.1-0.7,0.3-1,0.5c-0.3,0.2-0.6,0.4-0.9,0.6c-0.3,0.2-0.6,0.4-0.8,0.6c-0.3,0.2-0.5,0.5-0.8,0.7
			c-0.3,0.3-0.5,0.5-0.7,0.8c-0.2,0.3-0.4,0.6-0.6,0.9c-0.2,0.3-0.4,0.6-0.5,0.9c-0.1,0.3-0.2,0.6-0.3,0.9c-0.1,0.3-0.2,0.7-0.3,1
			c-0.1,0.3-0.1,0.7-0.2,1c0,0.3-0.1,0.7-0.1,1c0,0.4,0,0.7,0,1.1c0,0.8,0.1,1.5,0.2,2.2c0.1,0.7,0.3,1.4,0.6,2
			c0.3,0.6,0.6,1.2,1,1.8c0.4,0.5,0.9,1.1,1.4,1.6c0.5,0.5,1.1,0.9,1.7,1.3c0.6,0.4,1.2,0.7,1.8,0.9c0.5,0.2,1,0.3,1.5,0.4
			c0.5,0.1,1.1,0.2,1.6,0.2c0.6-0.1,1.1-0.2,1.6-0.3c0.5-0.1,1-0.3,1.5-0.5c0.7-0.3,1.3-0.6,1.8-1c0.6-0.4,1.1-0.8,1.6-1.4
			c0.5-0.5,1-1.1,1.4-1.7c0.4-0.6,0.7-1.2,0.9-1.8c0.3-0.6,0.5-1.3,0.6-2c0.1-0.7,0.2-1.4,0.2-2.1c0-0.8-0.1-1.5-0.2-2.2
			c-0.1-0.7-0.3-1.4-0.6-2c-0.3-0.6-0.6-1.2-1-1.8c-0.4-0.6-0.9-1.1-1.4-1.6c-0.5-0.5-1.1-0.9-1.7-1.3c-0.6-0.4-1.2-0.7-1.9-0.9
			c-0.5-0.2-1-0.4-1.6-0.5c-0.5-0.1-1.1-0.2-1.7-0.2C253.1,45.1,253,45.1,252.9,45.2z"/>
		<linearGradient id="SVGID_12_" gradientUnits="userSpaceOnUse" x1="252.5116" y1="20.7064" x2="253.729" y2="70.6103">
			<stop  offset="5.617980e-03" style="stop-color:#BC3235"/>
			<stop  offset="0.5084" style="stop-color:#BA3234"/>
			<stop  offset="0.6895" style="stop-color:#B33133"/>
			<stop  offset="0.8186" style="stop-color:#A8302F"/>
			<stop  offset="0.9222" style="stop-color:#972F2B"/>
			<stop  offset="0.9663" style="stop-color:#8D2E28"/>
		</linearGradient>
		<path class="st6" d="M238.3,32.5v0.9h2h2.8v13.1l1.5-1.3c0.3-0.2,0.5-0.4,0.7-0.6c0.2-0.2,0.4-0.3,0.7-0.5l0,0l0,0
			c0.4-0.2,0.7-0.4,1.1-0.6c0.4-0.2,0.7-0.3,1.1-0.4l0,0l0,0c0.3-0.1,0.7-0.3,1.1-0.3c0.4-0.1,0.8-0.2,1.3-0.2l-0.1-0.9v0.9h0.2h0.1
			l0.2,0h0.1h0.2h0.2h0.1l0.2,0h1.9h0.2h0.2c0.9,0,1.8,0.1,2.7,0.2c0.9,0.2,1.7,0.4,2.5,0.7c0.8,0.3,1.6,0.7,2.3,1.2
			c0.7,0.5,1.5,1,2.2,1.7c0.7,0.6,1.3,1.3,1.8,2c0.5,0.7,0.9,1.4,1.3,2.2l0,0l0,0c0.3,0.8,0.6,1.6,0.8,2.4c0.2,0.9,0.3,1.8,0.3,2.7
			c0,0.4,0,0.8-0.1,1.2c0,0.4-0.1,0.8-0.2,1.2c-0.1,0.4-0.1,0.7-0.2,1.1c-0.1,0.4-0.2,0.7-0.3,1.1l0,0l0,0c-0.1,0.2-0.1,0.4-0.2,0.5
			l0,0l0,0c-0.1,0.2-0.1,0.3-0.2,0.5l0.8,0.3l-0.8-0.5c-0.1,0.2-0.2,0.4-0.3,0.6c-0.1,0.2-0.1,0.3-0.2,0.5l0.8,0.3l-0.8-0.4
			c-0.1,0.2-0.2,0.5-0.4,0.6c-0.2,0.2-0.4,0.5-0.5,0.7l0.7,0.5l-0.6-0.6l-0.1,0.1l-0.3,0.3v0.5h0.9l-0.6-0.6l-0.1,0.1l-0.1,0.1
			l0,0.1l0,0l-0.1,0.1l0,0l0,0c-0.2,0.2-0.4,0.4-0.5,0.6c-0.2,0.2-0.4,0.4-0.6,0.7l0.7,0.6l-0.6-0.6c-0.2,0.2-0.3,0.3-0.5,0.5
			c-0.2,0.2-0.4,0.3-0.6,0.5l0.6,0.6l-0.5-0.8c-0.2,0.1-0.4,0.3-0.6,0.5c-0.2,0.1-0.4,0.3-0.5,0.4l0.6,0.7l-0.5-0.8
			c-0.2,0.1-0.3,0.2-0.5,0.3c-0.2,0.1-0.4,0.2-0.6,0.3l0.5,0.8l-0.4-0.8c-0.3,0.1-0.5,0.3-0.8,0.4c-0.3,0.1-0.5,0.2-0.8,0.3l0.3,0.9
			l-0.2-0.9c-0.3,0.1-0.5,0.1-0.8,0.2c-0.2,0.1-0.5,0.1-0.7,0.1l-0.1,0l-0.1,0c-0.1,0-0.2,0-0.3,0.1l0,0c-0.2,0-0.3,0-0.5,0.1
			l0.2,0.9v-0.9c-0.2,0-0.3,0-0.5,0l0.1,0.9l-0.1-0.9c-0.2,0-0.3,0-0.5,0.1l0.2,0.9v-0.9c-0.2,0-0.3,0-0.5,0l0,0c-0.1,0-0.2,0-0.3,0
			h-0.1l-0.1,0c-0.1,0-0.2,0-0.3,0c-0.1,0-0.3,0-0.4,0h0l-1.9,0l-0.1,0l-0.1,0h-0.3h-0.3v0.9l0.4-0.8l-0.1,0l-0.2-0.1h-0.3v0.9
			l0.4-0.8l-0.1-0.1l-0.2-0.1h-0.3h-0.1h-0.1h-0.1H251h-0.1v0.9l0.4-0.8l-0.1,0l-0.2-0.1h-0.3h-0.3v0.9l0.4-0.8l-0.1,0l-0.2-0.1
			h-0.3v0.9l0.4-0.8l-0.1,0l-0.2-0.1H250h-0.1v0.9l0.4-0.8l-0.1,0l-0.2-0.1h-0.3v0.9l0.2-0.9c-0.4-0.1-0.8-0.1-1.2-0.2
			c-0.4-0.1-0.7-0.2-1-0.3c-0.3-0.1-0.7-0.3-1-0.4c-0.3-0.1-0.6-0.3-1-0.5l0,0c-0.3-0.2-0.5-0.3-0.7-0.5c-0.2-0.1-0.4-0.3-0.7-0.4
			l-1.4-1v3.1h-1.1h-2.6V32.5H238.3v0.9V32.5h-0.9V70h4.4h2.9v-3.1h-0.9l-0.5,0.7c0.2,0.2,0.5,0.3,0.7,0.5c0.2,0.2,0.5,0.3,0.8,0.5
			l0.5-0.8l-0.5,0.8c0.4,0.3,0.8,0.5,1.2,0.7c0.4,0.2,0.8,0.3,1.2,0.5c0.4,0.1,0.8,0.3,1.3,0.4c0.4,0.1,0.8,0.2,1.2,0.2l0.1,0h0.2
			v-0.9l-0.4,0.8l0.1,0l0.2,0.1h0.4h0.1v-0.9l-0.4,0.8l0.1,0l0.2,0.1h0.3v-0.9l-0.4,0.8l0.1,0l0.2,0.1h0.5h0.1v-0.9l-0.4,0.8l0.1,0
			l0.2,0.1h0.3h0.1h0.1h0.1h0.1h0.1v-0.9l-0.4,0.8l0.1,0l0.2,0.1h0.3v-0.9l-0.4,0.8l0.1,0l0.2,0.1h0.5h0.1l0.1,0l0.1,0l2.1-0.1
			l0-0.9v0.9c0.2,0,0.3,0,0.4,0c0.2,0,0.4,0,0.6-0.1l-0.2-0.9v0.9c0.2,0,0.3,0,0.5,0l0,0l0,0c0.1,0,0.2,0,0.3,0h0.1l0.1,0
			c0.1,0,0.3-0.1,0.4-0.1l0,0h0c0.1,0,0.2,0,0.3,0h0.1l0.1,0c0.1,0,0.3,0,0.4-0.1l0,0c0.2,0,0.3-0.1,0.5-0.1l-0.2-0.9l0.1,0.9
			c0.3,0,0.6-0.1,0.9-0.2c0.3-0.1,0.6-0.1,0.8-0.2l0.1,0l0,0c0.3-0.1,0.6-0.2,0.9-0.4c0.3-0.1,0.6-0.3,0.8-0.4l0,0l0,0
			c0.2-0.1,0.3-0.2,0.5-0.3c0.2-0.1,0.4-0.2,0.6-0.4l0,0l0,0c0.2-0.1,0.3-0.3,0.5-0.4c0.2-0.1,0.3-0.3,0.5-0.4l0.1,0l0.1-0.1
			c0.1-0.1,0.3-0.3,0.5-0.4c0.2-0.2,0.4-0.4,0.6-0.6l0,0l0,0c0.1-0.2,0.3-0.4,0.5-0.5c0.2-0.2,0.4-0.4,0.6-0.7l-0.7-0.6l0.6,0.6
			l0.1-0.1l0.1-0.1l0.1-0.1l0.1-0.2l-0.8-0.4l0.6,0.6l0.1-0.1l0.3-0.3V64H266l0.6,0.6l0.1-0.1l0.1-0.1l0-0.1
			c0.2-0.2,0.3-0.5,0.5-0.7c0.2-0.3,0.4-0.6,0.6-1l0,0l0,0c0.1-0.2,0.1-0.3,0.2-0.4c0-0.1,0.1-0.2,0.2-0.4l0-0.1l0-0.1
			c0.1-0.2,0.1-0.3,0.2-0.5l0,0l0,0c0.1-0.2,0.1-0.4,0.2-0.6l-0.9-0.3l0.9,0.3c0.1-0.4,0.3-0.8,0.4-1.2c0.1-0.4,0.2-0.8,0.3-1.3
			c0.1-0.4,0.1-0.8,0.2-1.3c0.1-0.4,0.1-0.9,0.1-1.4c0-1.1-0.1-2.1-0.3-3.1c-0.2-1-0.5-1.9-0.9-2.8l-0.8,0.4l0.8-0.4
			c-0.4-0.9-0.9-1.8-1.5-2.6c-0.6-0.8-1.3-1.5-2-2.2c-0.8-0.7-1.6-1.3-2.4-1.9c-0.8-0.5-1.7-1-2.6-1.3c-0.9-0.4-1.9-0.6-2.8-0.8
			c-1-0.2-2-0.3-3-0.3H254h-0.2h-2.1l-0.2,0h-0.1h-0.2h-0.2h-0.1l-0.2,0h-0.1h-0.1l-0.1,0c-0.4,0.1-0.9,0.2-1.4,0.3
			c-0.5,0.1-1,0.3-1.4,0.4l0.4,0.8l-0.3-0.9c-0.5,0.1-0.9,0.3-1.3,0.5c-0.4,0.2-0.8,0.4-1.3,0.7l0.5,0.8l-0.4-0.8
			c-0.3,0.2-0.7,0.4-0.9,0.6c-0.3,0.2-0.5,0.4-0.8,0.7l0.6,0.7h0.9v-13h-4.6h-2.9v0.9H238.3z M252.9,45.2l-0.2-0.9l-0.2,0h-0.1
			l-0.3,0.1l-0.2,0l0.2,0.9l-0.2-0.9c-0.4,0.1-0.7,0.2-1.1,0.3c-0.4,0.1-0.7,0.2-1.1,0.4c-0.4,0.1-0.7,0.3-1.1,0.5
			c-0.3,0.2-0.7,0.4-1,0.6c-0.3,0.2-0.6,0.5-0.9,0.7c-0.3,0.2-0.6,0.5-0.8,0.8c-0.3,0.3-0.6,0.6-0.8,0.9c-0.3,0.3-0.5,0.6-0.7,0.9
			c-0.2,0.3-0.4,0.7-0.6,1c-0.1,0.3-0.3,0.6-0.4,1l0.9,0.3l-0.8-0.3c-0.2,0.4-0.3,0.7-0.3,1.1c-0.1,0.3-0.1,0.7-0.2,1l0,0l0,0
			c0,0.3-0.1,0.7-0.1,1c0,0.4-0.1,0.8-0.1,1.2c0,0.8,0.1,1.6,0.2,2.4c0.1,0.8,0.4,1.5,0.6,2.2c0.3,0.7,0.7,1.3,1.1,1.9
			c0.4,0.6,0.9,1.2,1.5,1.7c0.6,0.5,1.2,1,1.8,1.4c0.6,0.4,1.3,0.7,2,1l0,0l0,0c0.6,0.2,1.1,0.4,1.7,0.5c0.5,0.1,1.1,0.2,1.6,0.3
			l0.1,0l0.1,0c0.6-0.1,1.2-0.2,1.7-0.3c0.6-0.1,1.1-0.3,1.6-0.5c0.7-0.3,1.4-0.6,2-1.1c0.6-0.4,1.2-0.9,1.8-1.5
			c0.6-0.6,1.1-1.2,1.5-1.8c0.4-0.6,0.8-1.3,1-2l-0.9-0.3l0.8,0.4c0.3-0.7,0.5-1.4,0.7-2.2c0.1-0.8,0.2-1.5,0.2-2.3
			c0-0.8-0.1-1.6-0.2-2.4c-0.1-0.8-0.4-1.5-0.7-2.2c-0.3-0.7-0.7-1.3-1.1-2c-0.4-0.6-0.9-1.2-1.5-1.7c-0.6-0.5-1.2-1-1.8-1.4
			c-0.6-0.4-1.3-0.8-2.1-1l-0.3,0.9l0.3-0.8c-0.5-0.2-1.1-0.4-1.7-0.5c-0.6-0.1-1.2-0.2-1.8-0.3l0,0h0c-0.2,0-0.4,0-0.6,0.1l0,0l0,0
			L252.9,45.2l0.2,0.9l0.2,0v-0.9l-0.1,0.9c0.5,0,1,0.1,1.5,0.2c0.5,0.1,1,0.3,1.4,0.5l0,0l0,0c0.6,0.2,1.1,0.5,1.7,0.8
			c0.5,0.4,1,0.8,1.5,1.2c0.5,0.5,0.9,0.9,1.3,1.4c0.4,0.5,0.7,1,0.9,1.6c0.2,0.6,0.4,1.2,0.5,1.8c0.1,0.7,0.2,1.3,0.2,2
			c0,0.7-0.1,1.3-0.2,2c-0.1,0.6-0.3,1.2-0.5,1.8l0,0l0,0c-0.2,0.6-0.5,1.1-0.8,1.6c-0.4,0.5-0.8,1-1.3,1.5c-0.5,0.5-1,0.9-1.5,1.3
			c-0.5,0.3-1.1,0.6-1.7,0.9c-0.5,0.2-0.9,0.3-1.4,0.4c-0.5,0.1-1,0.2-1.5,0.3l0.1,0.9l0.1-0.9c-0.5-0.1-1-0.1-1.5-0.2
			c-0.5-0.1-0.9-0.2-1.4-0.4l-0.3,0.8l0.4-0.8c-0.6-0.2-1.2-0.5-1.7-0.9c-0.5-0.3-1.1-0.7-1.5-1.2c-0.5-0.5-0.9-0.9-1.3-1.4
			c-0.4-0.5-0.7-1-0.9-1.6c-0.2-0.6-0.4-1.2-0.5-1.8c-0.1-0.6-0.2-1.3-0.2-2c0-0.3,0-0.7,0-1c0-0.4,0.1-0.7,0.1-1l-0.9-0.1l0.9,0.2
			c0.1-0.4,0.1-0.7,0.2-1c0.1-0.3,0.1-0.5,0.3-0.8l0,0l0,0c0.1-0.3,0.2-0.5,0.3-0.8c0.1-0.2,0.2-0.5,0.4-0.8
			c0.2-0.3,0.4-0.5,0.6-0.8c0.2-0.3,0.4-0.5,0.7-0.8c0.3-0.3,0.5-0.5,0.7-0.7c0.2-0.2,0.5-0.4,0.7-0.6c0.3-0.2,0.6-0.4,0.9-0.5
			c0.3-0.2,0.6-0.3,0.8-0.4c0.3-0.1,0.6-0.2,0.9-0.3c0.3-0.1,0.6-0.2,0.9-0.2l0,0l0.2-0.1l0.2-0.1l-0.2-0.9v0.9c0.2,0,0.4,0,0.6-0.1
			l0,0L252.9,45.2z"/>
		<linearGradient id="SVGID_13_" gradientUnits="userSpaceOnUse" x1="276.0949" y1="20.1301" x2="277.3123" y2="70.0344">
			<stop  offset="5.617980e-03" style="stop-color:#BC3235"/>
			<stop  offset="0.5084" style="stop-color:#BA3234"/>
			<stop  offset="0.6895" style="stop-color:#B33133"/>
			<stop  offset="0.8186" style="stop-color:#A8302F"/>
			<stop  offset="0.9222" style="stop-color:#972F2B"/>
			<stop  offset="0.9663" style="stop-color:#8D2E28"/>
		</linearGradient>
		<path class="st7" d="M274,32.5h2h3.7v6.2h-2H274V32.5z M274,42h2h3.7v27.1h-2H274V42z"/>
		<linearGradient id="SVGID_14_" gradientUnits="userSpaceOnUse" x1="276.0949" y1="20.1313" x2="277.3123" y2="70.034">
			<stop  offset="5.617980e-03" style="stop-color:#BC3235"/>
			<stop  offset="0.5084" style="stop-color:#BA3234"/>
			<stop  offset="0.6895" style="stop-color:#B33133"/>
			<stop  offset="0.8186" style="stop-color:#A8302F"/>
			<stop  offset="0.9222" style="stop-color:#972F2B"/>
			<stop  offset="0.9663" style="stop-color:#8D2E28"/>
		</linearGradient>
		<path class="st8" d="M274,32.5v0.9h2h2.8v4.4h-1.1h-2.8v-5.3H274v0.9V32.5h-0.9v7.2h4.6h2.9v-8.1H276h-2.9v0.9H274z M274,42v0.9h2
			h2.8v25.3h-1.1h-2.8V42H274v0.9V42h-0.9v28h4.6h2.9V41.1H276h-2.9V42H274z"/>
		<linearGradient id="SVGID_15_" gradientUnits="userSpaceOnUse" x1="287.9765" y1="19.8405" x2="289.1939" y2="69.7448">
			<stop  offset="5.617980e-03" style="stop-color:#BC3235"/>
			<stop  offset="0.5084" style="stop-color:#BA3234"/>
			<stop  offset="0.6895" style="stop-color:#B33133"/>
			<stop  offset="0.8186" style="stop-color:#A8302F"/>
			<stop  offset="0.9222" style="stop-color:#972F2B"/>
			<stop  offset="0.9663" style="stop-color:#8D2E28"/>
		</linearGradient>
		<polygon class="st9" points="285.9,32.5 287.9,32.5 291.6,32.5 291.6,69.1 289.6,69.1 285.9,69.1 		"/>
		<linearGradient id="SVGID_16_" gradientUnits="userSpaceOnUse" x1="287.9766" y1="19.8416" x2="289.1939" y2="69.7443">
			<stop  offset="5.617980e-03" style="stop-color:#BC3235"/>
			<stop  offset="0.5084" style="stop-color:#BA3234"/>
			<stop  offset="0.6895" style="stop-color:#B33133"/>
			<stop  offset="0.8186" style="stop-color:#A8302F"/>
			<stop  offset="0.9222" style="stop-color:#972F2B"/>
			<stop  offset="0.9663" style="stop-color:#8D2E28"/>
		</linearGradient>
		<polygon class="st10" points="285.9,32.5 285.9,33.4 287.9,33.4 290.6,33.4 290.6,68.2 289.6,68.2 286.8,68.2 286.8,32.5 
			285.9,32.5 285.9,33.4 285.9,32.5 285,32.5 285,70 289.6,70 292.5,70 292.5,31.6 287.9,31.6 285,31.6 285,32.5 		"/>
		<linearGradient id="SVGID_17_" gradientUnits="userSpaceOnUse" x1="310.936" y1="19.2814" x2="312.1534" y2="69.1841">
			<stop  offset="5.617980e-03" style="stop-color:#BC3235"/>
			<stop  offset="0.5084" style="stop-color:#BA3234"/>
			<stop  offset="0.6895" style="stop-color:#B33133"/>
			<stop  offset="0.8186" style="stop-color:#A8302F"/>
			<stop  offset="0.9222" style="stop-color:#972F2B"/>
			<stop  offset="0.9663" style="stop-color:#8D2E28"/>
		</linearGradient>
		<path class="st11" d="M302.4,56.9c0,0.7,0.1,1.3,0.3,2c0.1,0.6,0.4,1.2,0.6,1.8c0.3,0.5,0.6,1,1,1.6c0.4,0.5,0.9,1,1.4,1.5
			c0.5,0.5,1.1,0.9,1.6,1.2c0.5,0.3,1.1,0.6,1.7,0.9c0.5,0.2,0.9,0.3,1.4,0.4c0.4,0.1,0.9,0.2,1.4,0.2c0.4,0,0.7-0.1,1-0.1
			c0.3,0,0.6-0.1,1-0.2c0.5-0.2,0.9-0.3,1.4-0.5c0.5-0.2,0.9-0.4,1.4-0.7c0.5-0.3,0.9-0.6,1.2-0.9c0.4-0.3,0.7-0.6,1-1
			c0.3-0.4,0.6-0.8,0.9-1.2c0.3-0.4,0.5-0.9,0.7-1.3l3.8-0.1h2c-0.2,0.7-0.5,1.4-0.8,2c-0.3,0.6-0.7,1.2-1.1,1.8
			c-0.4,0.6-0.9,1.1-1.4,1.6c-0.5,0.5-1.1,1-1.7,1.4c-0.6,0.4-1.3,0.8-1.9,1.2c-0.6,0.3-1.3,0.6-2,0.8c-0.7,0.2-1.3,0.3-2,0.4
			c-0.7,0.1-1.4,0.2-2.1,0.2l-2,0c-1,0-1.9-0.1-2.8-0.3c-0.9-0.2-1.8-0.4-2.7-0.7c-0.8-0.3-1.6-0.7-2.4-1.2
			c-0.8-0.5-1.5-1.1-2.2-1.8c-0.7-0.7-1.3-1.4-1.8-2.2c-0.5-0.8-0.9-1.6-1.3-2.4c-0.3-0.9-0.6-1.7-0.7-2.7c-0.2-0.9-0.2-1.9-0.2-2.8
			c0-1,0.1-1.9,0.2-2.8c0.2-0.9,0.4-1.8,0.7-2.6c0.4-0.9,0.8-1.7,1.3-2.4c0.5-0.8,1.1-1.5,1.8-2.2c0.7-0.7,1.4-1.3,2.1-1.8
			c0.8-0.5,1.6-1,2.4-1.3c0.9-0.4,1.7-0.6,2.6-0.8c0.9-0.2,1.9-0.2,2.8-0.2h2c0.5,0,1,0,1.6,0.1c0.5,0.1,1,0.1,1.6,0.2
			c0.5,0.1,1,0.3,1.5,0.4c0.5,0.2,1,0.4,1.4,0.6c0.5,0.2,0.9,0.5,1.4,0.8c0.4,0.3,0.9,0.6,1.3,0.9c0.4,0.3,0.8,0.7,1.2,1
			c0.4,0.4,0.7,0.7,1.1,1.1c0.3,0.4,0.6,0.8,0.8,1.2c0.3,0.4,0.5,0.8,0.7,1.2c0.1,0.2,0.2,0.4,0.3,0.6s0.2,0.4,0.2,0.6
			c0.1,0.2,0.1,0.4,0.2,0.6c0.1,0.2,0.1,0.4,0.2,0.6c0.1,0.4,0.2,0.9,0.3,1.3c0.1,0.4,0.1,0.9,0.2,1.3c0,0.3,0.1,0.6,0.1,0.9
			c0,0.3,0.1,0.6,0.1,0.9c0,0.1,0,0.3,0,0.4c0,0.1,0,0.3,0,0.5H302.4z M321.3,53.6c-0.1-0.6-0.3-1.1-0.5-1.7
			c-0.2-0.5-0.5-1.1-0.8-1.6c-0.3-0.5-0.6-1-1-1.4c-0.4-0.5-0.8-0.9-1.3-1.3c-0.5-0.4-1-0.8-1.5-1.1c-0.5-0.3-1.1-0.6-1.6-0.8
			c-0.4-0.2-0.8-0.3-1.2-0.4c-0.4-0.1-0.9-0.2-1.3-0.2c-0.5,0-0.9,0.1-1.4,0.2c-0.4,0.1-0.9,0.2-1.3,0.4c-0.6,0.2-1.1,0.4-1.6,0.7
			c-0.5,0.3-1,0.6-1.5,1c-0.5,0.4-1,0.9-1.4,1.3c-0.4,0.5-0.8,0.9-1.1,1.4c-0.3,0.5-0.6,1-0.8,1.6c-0.2,0.6-0.4,1.1-0.5,1.7H321.3z"
			/>
		<linearGradient id="SVGID_18_" gradientUnits="userSpaceOnUse" x1="310.9368" y1="19.2807" x2="312.1541" y2="69.1844">
			<stop  offset="5.617980e-03" style="stop-color:#BC3235"/>
			<stop  offset="0.5084" style="stop-color:#BA3234"/>
			<stop  offset="0.6895" style="stop-color:#B33133"/>
			<stop  offset="0.8186" style="stop-color:#A8302F"/>
			<stop  offset="0.9222" style="stop-color:#972F2B"/>
			<stop  offset="0.9663" style="stop-color:#8D2E28"/>
		</linearGradient>
		<path class="st12" d="M302.4,56.9l-0.9,0c0,0.7,0.1,1.5,0.3,2.1c0.2,0.7,0.4,1.3,0.7,1.9l0,0l0,0c0.3,0.6,0.7,1.2,1.1,1.7
			c0.4,0.6,0.9,1.1,1.5,1.6c0.6,0.5,1.1,0.9,1.7,1.3c0.6,0.4,1.2,0.7,1.9,0.9l0,0l0,0c0.5,0.2,1,0.3,1.5,0.4c0.5,0.1,1,0.2,1.5,0.2
			l0.1,0l0.1,0c0.4,0,0.7-0.1,1.1-0.1c0.4-0.1,0.7-0.1,1.1-0.3l0,0l0,0c0.5-0.2,1-0.4,1.5-0.6c0.5-0.2,1-0.5,1.5-0.8l-0.5-0.8
			l0.5,0.8c0.5-0.3,1-0.6,1.4-1c0.4-0.3,0.7-0.7,1.1-1l0,0l0,0c0.4-0.4,0.7-0.8,1-1.3c0.3-0.5,0.5-0.9,0.8-1.4l-0.8-0.4l0,0.9
			l3.8-0.1h2v-0.9l-0.9-0.3c-0.2,0.7-0.5,1.3-0.8,1.9c-0.3,0.6-0.7,1.1-1.1,1.7c-0.4,0.5-0.8,1-1.3,1.5c-0.5,0.5-1.1,0.9-1.6,1.4
			l0.5,0.7l-0.5-0.8c-0.6,0.4-1.2,0.8-1.8,1.1c-0.6,0.3-1.2,0.6-1.8,0.7l0.3,0.9l-0.2-0.9c-0.6,0.2-1.3,0.3-2,0.4
			c-0.6,0.1-1.3,0.2-2,0.2h0l-2,0l0,0.9l0-0.9c-1,0-1.9-0.1-2.7-0.3c-0.9-0.2-1.7-0.4-2.5-0.7l-0.3,0.9l0.3-0.8
			c-0.8-0.3-1.5-0.7-2.3-1.2c-0.7-0.5-1.4-1-2.1-1.7l0,0l0,0c-0.6-0.6-1.2-1.3-1.7-2c-0.5-0.7-0.9-1.5-1.2-2.3l-0.8,0.4l0.9-0.3
			c-0.3-0.8-0.5-1.6-0.7-2.5c-0.2-0.9-0.2-1.7-0.2-2.7c0-0.9,0.1-1.8,0.2-2.6c0.2-0.9,0.4-1.7,0.7-2.4l-0.8-0.3l0.8,0.4
			c0.3-0.8,0.8-1.6,1.2-2.3c0.5-0.7,1-1.4,1.7-2l0,0l0,0c0.6-0.7,1.3-1.2,2-1.7c0.7-0.5,1.4-0.9,2.2-1.2l0,0l0,0
			c0.8-0.3,1.6-0.6,2.5-0.7c0.9-0.2,1.7-0.2,2.7-0.2h2c0.5,0,1,0,1.4,0.1c0.5,0.1,1,0.1,1.5,0.2l0.2-0.9l-0.2,0.9
			c0.5,0.1,1,0.3,1.4,0.4c0.5,0.2,0.9,0.3,1.3,0.5c0.4,0.2,0.9,0.5,1.3,0.7c0.4,0.3,0.8,0.5,1.2,0.8c0.4,0.3,0.8,0.6,1.1,1
			c0.4,0.3,0.7,0.7,1,1.1l0.7-0.6l-0.7,0.5c0.3,0.4,0.6,0.8,0.8,1.1c0.2,0.4,0.5,0.7,0.6,1.1c0.1,0.2,0.2,0.4,0.3,0.6
			c0.1,0.2,0.1,0.3,0.2,0.5l0.9-0.3l-0.9,0.3c0.1,0.3,0.2,0.5,0.3,0.7c0.1,0.1,0.1,0.3,0.1,0.4l0,0l0,0c0.1,0.4,0.2,0.8,0.3,1.3
			c0.1,0.4,0.1,0.8,0.2,1.2l0,0l0,0c0,0.3,0.1,0.5,0.1,0.8c0,0.3,0.1,0.6,0.1,0.9l0.9-0.1H326c0,0.2,0,0.3,0,0.5l0,0v0
			c0,0.1,0,0.2,0,0.4h0.9V56h-25.5l0,1L302.4,56.9v0.9h25.4v-0.9c0-0.2,0-0.4,0-0.6v0c0-0.1,0-0.2,0-0.3v-0.1l0,0
			c0-0.3-0.1-0.6-0.1-0.9c0-0.3-0.1-0.6-0.1-0.9l-0.9,0.1l0.9-0.1c0-0.5-0.1-1-0.2-1.4c-0.1-0.4-0.2-0.9-0.3-1.3l-0.9,0.2l0.9-0.1
			c0-0.3-0.1-0.5-0.2-0.8c-0.1-0.2-0.1-0.3-0.2-0.5l0,0l0,0c-0.1-0.2-0.2-0.5-0.3-0.7c-0.1-0.2-0.2-0.4-0.3-0.6
			c-0.2-0.4-0.5-0.9-0.8-1.3c-0.3-0.4-0.6-0.8-0.9-1.2l0,0l0,0c-0.4-0.4-0.7-0.8-1.1-1.2c-0.4-0.4-0.8-0.7-1.2-1.1
			c-0.4-0.4-0.9-0.7-1.4-1c-0.5-0.3-1-0.6-1.4-0.8c-0.5-0.3-1-0.5-1.6-0.6c-0.5-0.2-1-0.3-1.5-0.5l0,0l0,0c-0.5-0.1-1.1-0.2-1.6-0.3
			c-0.6-0.1-1.1-0.1-1.7-0.1h-2c-1,0-2,0.1-3,0.3c-1,0.2-1.9,0.5-2.8,0.8l0.4,0.8l-0.3-0.8c-0.9,0.4-1.7,0.8-2.6,1.4
			c-0.8,0.6-1.6,1.2-2.3,2l0.7,0.6l-0.6-0.6c-0.7,0.7-1.4,1.5-1.9,2.3c-0.5,0.8-1,1.7-1.4,2.6l0,0l0,0c-0.4,0.9-0.6,1.8-0.8,2.8
			c-0.2,1-0.3,2-0.3,3c0,1,0.1,2,0.3,3c0.2,1,0.4,1.9,0.8,2.8l0,0l0,0c0.4,0.9,0.8,1.7,1.4,2.5c0.6,0.8,1.2,1.6,1.9,2.3l0.6-0.7
			l-0.6,0.6c0.7,0.7,1.5,1.4,2.4,1.9c0.8,0.5,1.7,1,2.6,1.3l0,0l0,0c0.9,0.3,1.8,0.6,2.8,0.7c1,0.2,1.9,0.3,3,0.3l0,0l2-0.1l0-0.9
			v0.9c0.8,0,1.5-0.1,2.3-0.2c0.7-0.1,1.4-0.3,2.1-0.4l0,0l0,0c0.7-0.2,1.4-0.5,2.1-0.9c0.7-0.4,1.3-0.8,2-1.2l0,0l0,0
			c0.7-0.5,1.3-1,1.8-1.5c0.6-0.5,1.1-1.1,1.5-1.7c0.5-0.6,0.9-1.2,1.2-1.9c0.4-0.7,0.7-1.4,0.9-2.2l0.4-1.2h-3.2l-4.4,0.1l-0.2,0.5
			c-0.2,0.4-0.4,0.8-0.6,1.2c-0.2,0.4-0.5,0.7-0.8,1l0.7,0.6l-0.6-0.6c-0.3,0.3-0.6,0.6-1,0.9c-0.3,0.3-0.7,0.5-1.1,0.8l0,0l0,0
			c-0.4,0.2-0.8,0.4-1.2,0.6c-0.5,0.2-0.9,0.4-1.4,0.5l0.3,0.9l-0.3-0.9c-0.3,0.1-0.6,0.2-0.8,0.2c-0.3,0-0.6,0.1-1,0.1l0.1,0.9
			l0.1-0.9c-0.4,0-0.8-0.1-1.2-0.2c-0.4-0.1-0.8-0.2-1.3-0.4l-0.3,0.9l0.3-0.9c-0.5-0.2-1.1-0.5-1.5-0.8c-0.5-0.3-1-0.7-1.5-1.1
			c-0.5-0.4-0.9-0.9-1.3-1.3c-0.4-0.5-0.7-0.9-0.9-1.4l-0.8,0.4l0.8-0.4c-0.2-0.5-0.4-1-0.6-1.6c-0.1-0.6-0.2-1.1-0.2-1.8
			L302.4,56.9v0.9V56.9z M321.3,53.6l0.9-0.2c-0.1-0.6-0.3-1.2-0.6-1.8c-0.2-0.6-0.5-1.2-0.8-1.7c-0.3-0.5-0.7-1.1-1.1-1.6
			c-0.4-0.5-0.9-1-1.4-1.4c-0.5-0.5-1.1-0.9-1.7-1.2c-0.6-0.3-1.2-0.6-1.8-0.8l-0.3,0.9l0.4-0.8c-0.4-0.2-0.9-0.3-1.4-0.4
			c-0.5-0.1-1-0.2-1.5-0.2l-0.1,0l-0.1,0c-0.5,0-1,0.1-1.5,0.2c-0.5,0.1-1,0.3-1.4,0.4l0.3,0.9l-0.3-0.9c-0.6,0.2-1.2,0.5-1.8,0.8
			c-0.6,0.3-1.1,0.7-1.7,1.1l0,0l0,0c-0.5,0.5-1,0.9-1.4,1.4c-0.4,0.5-0.8,1-1.2,1.6c-0.3,0.5-0.6,1.1-0.8,1.7
			c-0.2,0.6-0.4,1.3-0.5,1.9l-0.2,1.1h21.1l-0.3-1.1L321.3,53.6v-0.9h-18.9v0.9l0.9,0.1c0.1-0.5,0.2-1.1,0.4-1.6
			c0.2-0.5,0.4-1,0.7-1.4c0.3-0.4,0.6-0.9,1-1.3c0.4-0.4,0.8-0.9,1.3-1.3l-0.6-0.7l0.6,0.7c0.5-0.4,0.9-0.7,1.4-1
			c0.5-0.3,1-0.5,1.5-0.7l0,0l0,0c0.4-0.1,0.8-0.3,1.2-0.4c0.4-0.1,0.8-0.1,1.2-0.2l-0.1-0.9l-0.1,0.9c0.4,0,0.8,0.1,1.2,0.2
			c0.4,0.1,0.7,0.2,1.1,0.4l0,0l0,0c0.5,0.2,1,0.4,1.5,0.7c0.5,0.3,0.9,0.6,1.4,1c0.5,0.4,0.9,0.8,1.2,1.2c0.4,0.4,0.7,0.9,1,1.3
			c0.3,0.5,0.5,0.9,0.7,1.4c0.2,0.5,0.4,1,0.5,1.5L321.3,53.6v-0.9V53.6z"/>
	</g>
	<g>
		<g>
			<linearGradient id="SVGID_19_" gradientUnits="userSpaceOnUse" x1="349.9129" y1="69.2922" x2="347.0822" y2="29.092">
				<stop  offset="5.617980e-03" style="stop-color:#6B7377"/>
				<stop  offset="0.9775" style="stop-color:#3F4647"/>
			</linearGradient>
			<path class="st13" d="M362.1,41.6c-1.7-2.3-3.6-4.1-5.7-5.2c-2.1-1.1-4.5-1.7-7.2-1.7c-4.2,0-7.8,1.6-10.8,4.7
				c-3,3.1-4.5,6.8-4.5,11.1c0,4.6,1.5,8.4,4.4,11.5c3,3.1,6.6,4.7,10.8,4.7c2.6,0,5-0.5,7.1-1.6c2.1-1.1,3.9-2.7,5.5-4.9h4.4
				c-1.7,3.2-4,5.7-6.9,7.5c-2.9,1.8-6.2,2.6-9.8,2.6c-5.5,0-10.2-1.9-13.9-5.7c-3.7-3.8-5.6-8.5-5.6-14.2c0-2.6,0.5-5.1,1.5-7.5
				c1-2.4,2.5-4.5,4.4-6.4c1.8-1.8,3.8-3.2,6.1-4.1c2.2-0.9,4.7-1.4,7.3-1.4c3.7,0,7.1,0.9,10.1,2.7c3,1.8,5.4,4.4,7.1,7.8H362.1z"
				/>
			<linearGradient id="SVGID_20_" gradientUnits="userSpaceOnUse" x1="385.7181" y1="66.7712" x2="382.8874" y2="26.5711">
				<stop  offset="5.617980e-03" style="stop-color:#6B7377"/>
				<stop  offset="0.9775" style="stop-color:#3F4647"/>
			</linearGradient>
			<path class="st14" d="M395.4,65c-1.1,1.6-2.7,2.9-4.6,3.9c-1.9,0.9-4,1.4-6.3,1.4c-4.2,0-7.7-1.4-10.4-4.3
				c-2.8-2.9-4.2-6.4-4.2-10.6c0-4.3,1.4-7.8,4.3-10.7c2.8-2.9,6.4-4.3,10.7-4.3c2.2,0,4.2,0.4,6,1.3c1.8,0.9,3.4,2.2,4.6,3.8V41
				h3.6v28.5h-3.6V65z M395.4,55.1c0-3-1.1-5.7-3.2-7.9c-2.2-2.3-4.6-3.4-7.5-3.4c-3.1,0-5.7,1.1-7.8,3.4c-2.2,2.3-3.2,5.1-3.2,8.4
				c0,3.2,1.1,5.9,3.2,8c2.1,2.2,4.7,3.3,7.7,3.3c2.9,0,5.4-1.2,7.6-3.5C394.3,61.1,395.4,58.3,395.4,55.1z"/>
			<linearGradient id="SVGID_21_" gradientUnits="userSpaceOnUse" x1="417.7074" y1="64.5184" x2="414.8766" y2="24.3179">
				<stop  offset="5.617980e-03" style="stop-color:#6B7377"/>
				<stop  offset="0.9775" style="stop-color:#3F4647"/>
			</linearGradient>
			<path class="st15" d="M404.7,41h3.6v15.1c0,3.9,0.6,6.6,1.9,8.3c1.3,1.6,3.3,2.4,6.2,2.4c1.6,0,3.1-0.3,4.3-1
				c1.2-0.7,2.2-1.6,3-2.9c0.4-0.7,0.7-1.6,0.9-2.6c0.2-1,0.3-2.8,0.3-5.3V41h3.7v28.5h-3.7v-3.1c-1.1,1.3-2.3,2.3-3.7,2.9
				c-1.4,0.6-3,0.9-5,0.9c-4.1,0-7.1-1.1-8.9-3.3c-1.8-2.2-2.7-5.9-2.7-11.1V41z"/>
			<linearGradient id="SVGID_22_" gradientUnits="userSpaceOnUse" x1="441.9819" y1="62.8086" x2="439.1512" y2="22.6094">
				<stop  offset="5.617980e-03" style="stop-color:#6B7377"/>
				<stop  offset="0.9775" style="stop-color:#3F4647"/>
			</linearGradient>
			<path class="st16" d="M432.6,60.5h3.8v0.1c0,1.8,0.5,3.3,1.5,4.4c1,1.2,2.3,1.7,3.8,1.7c1.4,0,2.6-0.4,3.6-1.3
				c0.9-0.9,1.4-2,1.4-3.4c0-1.4-0.4-2.5-1.1-3.3c-0.8-0.8-2.1-1.6-4.1-2.3c-3.2-1.1-5.2-2.3-6.2-3.4c-1-1.2-1.5-2.7-1.5-4.7
				c0-2.2,0.8-4.1,2.4-5.7c1.6-1.6,3.6-2.3,5.9-2.3c2.4,0,4.4,0.7,5.8,2.1c1.4,1.4,2.2,3.3,2.3,5.8h-3.9c-0.1-1.3-0.5-2.4-1.3-3.1
				c-0.8-0.7-1.8-1.1-3.1-1.1c-1.2,0-2.2,0.4-3,1.2c-0.8,0.8-1.2,1.8-1.2,3c0,0.8,0.2,1.6,0.5,2.1c0.3,0.6,0.9,1.1,1.6,1.6
				c0.7,0.4,1.7,0.8,3,1.2c1.3,0.4,2.2,0.7,2.7,0.9c1.8,0.8,3.1,1.8,3.9,3c0.8,1.3,1.3,2.9,1.3,4.8c0,2.5-0.9,4.5-2.6,6.1
				c-1.7,1.6-3.9,2.4-6.5,2.4c-2.7,0-4.8-0.9-6.5-2.6C433.5,65.9,432.7,63.5,432.6,60.5z"/>
			<linearGradient id="SVGID_23_" gradientUnits="userSpaceOnUse" x1="468.6303" y1="60.9323" x2="465.7996" y2="20.7329">
				<stop  offset="5.617980e-03" style="stop-color:#6B7377"/>
				<stop  offset="0.9775" style="stop-color:#3F4647"/>
			</linearGradient>
			<path class="st17" d="M483,56.4h-25.7c0.2,3.1,1.3,5.6,3.4,7.5c2,1.9,4.5,2.9,7.6,2.9c2.1,0,4.1-0.6,5.8-1.7c1.7-1.1,3-2.7,4-4.6
				h4.1c-1.3,3.2-3.2,5.6-5.5,7.3c-2.4,1.7-5.1,2.5-8.3,2.5c-4.1,0-7.7-1.5-10.5-4.4c-2.9-3-4.3-6.5-4.3-10.7
				c0-4.3,1.4-7.9,4.2-10.8c2.8-2.8,6.4-4.3,10.8-4.3c4.3,0,7.8,1.5,10.5,4.4c2.7,2.9,4.1,6.8,4.1,11.5V56.4z M479,53.2
				c-0.7-3.2-2-5.6-3.8-7.2s-4.3-2.4-7.2-2.4c-2.8,0-5.1,0.9-7,2.6c-1.9,1.7-3.1,4-3.5,7H479z"/>
		</g>
	</g>
</g>
</svg>
